<svg width="42" height="37" viewBox="0 0 42 37" fill="none" xmlns="http://www.w3.org/2000/svg">
<path d="M28.1412 9.5724L26.2127 4.42975H16.1685L14.24 9.5724H4.51715V32.7143H37.9444V9.5724H28.1412ZM26.6948 0.572759C28.0609 0.572759 29.1858 1.45665 29.6679 2.66196L30.8732 5.71541H37.9444C40.0336 5.71541 41.8014 7.4832 41.8014 9.5724V32.7143C41.8014 34.8839 40.0336 36.5713 37.9444 36.5713H4.51715C2.34759 36.5713 0.660156 34.8839 0.660156 32.7143V9.5724C0.660156 7.4832 2.34759 5.71541 4.51715 5.71541H11.5883L12.5525 3.14408C13.115 1.61736 14.5614 0.572759 16.1685 0.572759H26.6948ZM21.2308 30.7858C15.8471 30.7858 11.5883 26.5271 11.5883 21.1434C11.5883 15.84 15.8471 11.5009 21.2308 11.5009C26.5341 11.5009 30.8732 15.84 30.8732 21.1434C30.8732 26.5271 26.5341 30.7858 21.2308 30.7858ZM21.2308 15.3579C18.0166 15.3579 15.4453 18.0096 15.4453 21.1434C15.4453 24.3575 18.0166 26.9289 21.2308 26.9289C24.3646 26.9289 27.0163 24.3575 27.0163 21.1434C27.0163 18.0096 24.3646 15.3579 21.2308 15.3579Z" fill="white"/>
</svg>
