<svg width="134" height="50" viewBox="0 0 134 50" fill="none" xmlns="http://www.w3.org/2000/svg">
<path d="M4.99639 10.1827L2.21816 10.1753L2.5203 8.45092L5.07008 8.45829C5.43363 8.45829 5.76771 8.39442 6.0723 8.26668C6.3769 8.13404 6.62746 7.94244 6.82397 7.69188C7.02049 7.44132 7.14576 7.1269 7.19981 6.74861C7.24893 6.42927 7.23174 6.14187 7.14822 5.8864C7.0647 5.63093 6.91732 5.42459 6.70606 5.26738C6.49481 5.11017 6.22215 5.02419 5.88807 5.00945L3.87625 5.00208L2.31396 14H0.154755L2.01182 3.2703L5.95439 3.27767C6.63728 3.29241 7.24648 3.43979 7.78198 3.71983C8.31748 3.99495 8.73016 4.38798 9.02002 4.89891C9.3148 5.40494 9.4327 6.01659 9.37375 6.73387C9.30988 7.51502 9.0667 8.16106 8.64419 8.672C8.22168 9.18293 7.68864 9.56368 7.04505 9.81424C6.40638 10.0599 5.72349 10.1827 4.99639 10.1827ZM15.9384 10.1385L15.9605 9.98373C16.0195 9.41875 16.1546 8.88816 16.3658 8.39196C16.582 7.89085 16.8669 7.45115 17.2207 7.07286C17.5793 6.68965 17.9994 6.39243 18.4808 6.18117C18.9672 5.96501 19.5125 5.86429 20.1168 5.87903C20.6916 5.88886 21.1878 6.00431 21.6054 6.22539C22.023 6.44647 22.3644 6.7437 22.6297 7.11707C22.8999 7.49045 23.0891 7.91787 23.1972 8.39933C23.3102 8.88079 23.3421 9.38927 23.293 9.92478L23.2782 10.0869C23.2144 10.647 23.0719 11.1751 22.8508 11.6713C22.6347 12.1626 22.3473 12.5974 21.9886 12.9757C21.6349 13.349 21.2148 13.6414 20.7285 13.8526C20.2421 14.0639 19.7017 14.1621 19.1072 14.1474C18.5422 14.1376 18.0485 14.0246 17.626 13.8084C17.2035 13.5873 16.8596 13.2925 16.5943 12.9241C16.329 12.5507 16.1423 12.1257 16.0342 11.6492C15.9261 11.1726 15.8942 10.6691 15.9384 10.1385ZM18.0313 9.98373L18.0166 10.1459C17.992 10.3817 17.9846 10.6347 17.9945 10.9049C18.0043 11.1702 18.046 11.4232 18.1197 11.6639C18.1983 11.9047 18.3261 12.1012 18.5029 12.2535C18.6798 12.4058 18.923 12.4868 19.2325 12.4967C19.5617 12.5065 19.8441 12.4402 20.08 12.2977C20.3158 12.1552 20.5098 11.9636 20.6621 11.7229C20.8144 11.4772 20.9348 11.2119 21.0232 10.927C21.1117 10.6371 21.1706 10.3547 21.2001 10.0795L21.2148 9.92478C21.2345 9.68896 21.2394 9.43595 21.2296 9.16574C21.2247 8.89062 21.1829 8.63269 21.1043 8.39196C21.0257 8.14632 20.898 7.94489 20.7211 7.78768C20.5442 7.63047 20.301 7.54695 19.9915 7.53712C19.6624 7.52239 19.3799 7.59117 19.1441 7.74346C18.9082 7.89085 18.7142 8.08737 18.5619 8.33301C18.4096 8.57865 18.2892 8.8464 18.2008 9.13626C18.1173 9.42612 18.0608 9.70861 18.0313 9.98373ZM32.6285 11.8334L35.2225 6.02642H36.5858L35.731 8.44355L33.1886 14H32.039L32.6285 11.8334ZM32.8201 6.02642L32.9454 12.0398L32.7022 14H31.4494L30.8599 6.02642H32.8201ZM37.0427 11.7303L39.1356 6.02642H41.1843L37.846 14H36.5195L37.0427 11.7303ZM36.7185 6.02642L37.3154 12.0029L37.1754 14H36.1068L35.4657 8.25932V6.02642H36.7185ZM50.7409 14.1474C50.1955 14.1376 49.7042 14.0344 49.267 13.8379C48.8298 13.6364 48.4637 13.3613 48.169 13.0125C47.8791 12.6637 47.6654 12.2584 47.5278 11.7966C47.3903 11.3348 47.3412 10.8386 47.3805 10.308L47.4099 10.0058C47.4689 9.45069 47.604 8.92255 47.8153 8.42144C48.0265 7.92033 48.309 7.47817 48.6627 7.09497C49.0164 6.70685 49.434 6.40471 49.9155 6.18854C50.4019 5.96746 50.9423 5.86429 51.5367 5.87903C52.0919 5.88886 52.566 6.00185 52.959 6.21802C53.3521 6.43419 53.6689 6.72404 53.9097 7.0876C54.1504 7.45115 54.315 7.86629 54.4034 8.33301C54.4918 8.79482 54.509 9.27874 54.455 9.78476L54.3371 10.6691H48.1763L48.4048 9.25417L52.4726 9.26154L52.5095 9.07731C52.5488 8.8071 52.5365 8.55654 52.4726 8.32564C52.4088 8.08982 52.2884 7.90068 52.1116 7.7582C51.9347 7.61573 51.6989 7.53958 51.4041 7.52975C51.0651 7.51993 50.7802 7.59117 50.5493 7.74346C50.3184 7.89576 50.1292 8.09719 49.9818 8.34775C49.8344 8.5983 49.7214 8.87097 49.6428 9.16574C49.5642 9.4556 49.5077 9.73563 49.4733 10.0058L49.4439 10.3006C49.4193 10.561 49.4267 10.8214 49.466 11.0818C49.5053 11.3372 49.5814 11.5681 49.6944 11.7745C49.8123 11.9808 49.972 12.1478 50.1734 12.2756C50.3798 12.4033 50.6377 12.4721 50.9472 12.4819C51.3402 12.4917 51.7013 12.4156 52.0305 12.2535C52.3646 12.0864 52.6642 11.8654 52.9295 11.5902L53.8581 12.7104C53.637 13.0444 53.3545 13.3196 53.0106 13.5357C52.6716 13.747 52.3056 13.9017 51.9126 14C51.5196 14.1032 51.129 14.1523 50.7409 14.1474ZM64.2474 7.87611L63.1862 14H61.1155L62.5009 6.02642H64.4464L64.2474 7.87611ZM66.8488 5.96009L66.5909 7.94244C66.4729 7.92278 66.3526 7.90559 66.2298 7.89085C66.1118 7.87611 65.9915 7.86629 65.8687 7.86137C65.5837 7.85646 65.3258 7.89331 65.0949 7.97191C64.864 8.05052 64.6626 8.16597 64.4906 8.31827C64.3236 8.46566 64.1811 8.64743 64.0632 8.8636C63.9502 9.07976 63.8642 9.32295 63.8053 9.59316L63.3999 9.46051C63.4491 9.08222 63.5301 8.68428 63.6431 8.26668C63.761 7.84418 63.9232 7.45115 64.1295 7.0876C64.3408 6.71913 64.6085 6.4219 64.9328 6.19591C65.2619 5.96501 65.6623 5.85201 66.134 5.85692C66.2568 5.85692 66.3747 5.86675 66.4877 5.8864C66.6056 5.90605 66.726 5.93062 66.8488 5.96009ZM76.2801 14.1474C75.7348 14.1376 75.2435 14.0344 74.8062 13.8379C74.369 13.6364 74.003 13.3613 73.7082 13.0125C73.4184 12.6637 73.2046 12.2584 73.0671 11.7966C72.9295 11.3348 72.8804 10.8386 72.9197 10.308L72.9492 10.0058C73.0081 9.45069 73.1432 8.92255 73.3545 8.42144C73.5657 7.92033 73.8482 7.47817 74.202 7.09497C74.5557 6.70685 74.9733 6.40471 75.4547 6.18854C75.9411 5.96746 76.4815 5.86429 77.076 5.87903C77.6311 5.88886 78.1052 6.00185 78.4983 6.21802C78.8913 6.43419 79.2082 6.72404 79.4489 7.0876C79.6896 7.45115 79.8542 7.86629 79.9426 8.33301C80.0311 8.79482 80.0483 9.27874 79.9942 9.78476L79.8763 10.6691H73.7156L73.944 9.25417L78.0119 9.26154L78.0487 9.07731C78.088 8.8071 78.0758 8.55654 78.0119 8.32564C77.948 8.08982 77.8277 7.90068 77.6508 7.7582C77.4739 7.61573 77.2381 7.53958 76.9433 7.52975C76.6043 7.51993 76.3194 7.59117 76.0885 7.74346C75.8576 7.89576 75.6684 8.09719 75.5211 8.34775C75.3737 8.5983 75.2607 8.87097 75.1821 9.16574C75.1035 9.4556 75.047 9.73563 75.0126 10.0058L74.9831 10.3006C74.9585 10.561 74.9659 10.8214 75.0052 11.0818C75.0445 11.3372 75.1207 11.5681 75.2337 11.7745C75.3516 11.9808 75.5112 12.1478 75.7127 12.2756C75.919 12.4033 76.1769 12.4721 76.4864 12.4819C76.8795 12.4917 77.2406 12.4156 77.5697 12.2535C77.9038 12.0864 78.2035 11.8654 78.4688 11.5902L79.3973 12.7104C79.1762 13.0444 78.8937 13.3196 78.5498 13.5357C78.2109 13.747 77.8448 13.9017 77.4518 14C77.0588 14.1032 76.6682 14.1523 76.2801 14.1474ZM91.5479 12.1429L93.1839 2.68076H95.2694L93.3092 14H91.4447L91.5479 12.1429ZM87.0084 10.168L87.0232 10.0058C87.087 9.51947 87.2 9.02818 87.3621 8.53198C87.5292 8.03578 87.7552 7.5838 88.0401 7.17603C88.33 6.76826 88.6862 6.44401 89.1087 6.20328C89.5312 5.96255 90.0323 5.85201 90.612 5.87166C91.1082 5.89131 91.5184 6.03133 91.8427 6.29171C92.1669 6.54718 92.4175 6.8788 92.5943 7.28657C92.7761 7.68942 92.8989 8.1193 92.9628 8.5762C93.0316 9.02818 93.0586 9.45805 93.0439 9.86582L93.007 10.2195C92.9284 10.6568 92.7958 11.1088 92.6091 11.5755C92.4273 12.0373 92.189 12.4672 91.8943 12.8651C91.6044 13.2582 91.258 13.575 90.8552 13.8158C90.4572 14.0565 90.0028 14.1695 89.4919 14.1548C88.9564 14.14 88.5167 14.0098 88.1728 13.7642C87.8338 13.5136 87.5709 13.1918 87.3843 12.7988C87.1976 12.4058 87.0772 11.9784 87.0232 11.5165C86.9691 11.0547 86.9642 10.6052 87.0084 10.168ZM89.1087 9.99847L89.0939 10.1532C89.0743 10.3645 89.062 10.6028 89.0571 10.868C89.0571 11.1284 89.0841 11.3814 89.1381 11.6271C89.1971 11.8678 89.3027 12.0692 89.455 12.2314C89.6122 12.3886 89.8382 12.4746 90.133 12.4893C90.5064 12.504 90.8282 12.4181 91.0984 12.2314C91.3686 12.0398 91.5848 11.7941 91.7469 11.4944C91.9139 11.1948 92.0245 10.8803 92.0785 10.5512L92.2185 9.57105C92.2431 9.34506 92.2431 9.11661 92.2185 8.88571C92.1939 8.6548 92.1374 8.43864 92.049 8.23721C91.9655 8.03578 91.8378 7.8712 91.6658 7.74346C91.4988 7.61573 91.2802 7.54941 91.0099 7.54449C90.6808 7.52975 90.4008 7.60099 90.1698 7.7582C89.9439 7.9105 89.7596 8.11193 89.6171 8.36249C89.4747 8.60813 89.3617 8.87588 89.2782 9.16574C89.1996 9.4556 89.1431 9.73318 89.1087 9.99847ZM112.975 2.68076H115.053L113.38 12.2903L112.887 14H111.007L112.975 2.68076ZM118.679 9.88793L118.664 10.0501C118.6 10.5413 118.487 11.0326 118.325 11.5239C118.168 12.0152 117.947 12.4623 117.662 12.8651C117.382 13.2631 117.031 13.5824 116.608 13.8231C116.191 14.059 115.694 14.1695 115.12 14.1548C114.614 14.14 114.196 14.0074 113.867 13.7568C113.538 13.5013 113.282 13.1771 113.1 12.7841C112.919 12.3861 112.796 11.9612 112.732 11.5092C112.668 11.0523 112.643 10.615 112.658 10.1974L112.695 9.85108C112.774 9.40893 112.904 8.95203 113.086 8.48039C113.267 8.00876 113.501 7.57397 113.786 7.17603C114.076 6.77809 114.419 6.45875 114.817 6.21802C115.22 5.97238 115.682 5.85692 116.203 5.87166C116.753 5.88149 117.2 6.00922 117.544 6.25487C117.893 6.50051 118.158 6.8223 118.34 7.22024C118.522 7.61327 118.635 8.04315 118.679 8.50987C118.728 8.97659 118.728 9.43595 118.679 9.88793ZM116.593 10.0427L116.601 9.88056C116.625 9.65948 116.64 9.4163 116.645 9.151C116.655 8.88571 116.633 8.63269 116.579 8.39196C116.525 8.15123 116.419 7.95226 116.262 7.79505C116.105 7.63292 115.874 7.54695 115.569 7.53712C115.269 7.52239 115.007 7.56906 114.781 7.67714C114.559 7.78522 114.37 7.93507 114.213 8.12667C114.056 8.31827 113.928 8.53689 113.83 8.78254C113.732 9.02327 113.66 9.27382 113.616 9.5342L113.476 10.507C113.457 10.8165 113.474 11.1211 113.528 11.4207C113.582 11.7204 113.702 11.971 113.889 12.1724C114.08 12.3689 114.361 12.4721 114.729 12.4819C115.068 12.4967 115.35 12.4303 115.576 12.283C115.802 12.1307 115.984 11.9317 116.122 11.686C116.259 11.4404 116.362 11.1726 116.431 10.8828C116.505 10.588 116.559 10.308 116.593 10.0427ZM127.838 12.9904L131.065 6.02642H133.35L128.678 15.2086C128.54 15.4984 128.383 15.7662 128.206 16.0118C128.034 16.2624 127.838 16.4785 127.616 16.6603C127.4 16.847 127.152 16.9895 126.872 17.0877C126.597 17.1909 126.288 17.2425 125.944 17.2425C125.772 17.2425 125.605 17.2278 125.443 17.1983C125.28 17.1688 125.118 17.1344 124.956 17.0951L125.104 15.5254C125.158 15.5304 125.212 15.5353 125.266 15.5402C125.315 15.5451 125.364 15.5476 125.413 15.5476C125.659 15.5525 125.875 15.523 126.062 15.4591C126.253 15.4002 126.42 15.3019 126.563 15.1643C126.705 15.0317 126.833 14.8573 126.946 14.6411L127.838 12.9904ZM128.169 6.02642L128.862 11.9145L128.766 14.059L127.381 14.2211L126.017 6.02642H128.169Z" fill="#00AE8D"/>
<path d="M17.2192 45.0495C16.8585 44.5608 16.4187 44.5224 15.9034 44.9308C15.6732 45.1053 15.388 45.3112 15.0445 45.5486C14.7009 45.7824 14.2955 46.0023 13.8283 46.2083C13.361 46.4142 12.8423 46.5887 12.2685 46.7353C11.6948 46.8819 11.0764 46.9552 10.4099 46.9552C9.2452 46.9552 8.20421 46.7353 7.2766 46.2955C6.35242 45.8557 5.56567 45.2624 4.91634 44.5189C4.26701 43.7755 3.77229 42.9029 3.42873 41.9047C3.08517 40.9065 2.91339 39.8594 2.91339 38.7634C2.91339 37.6675 3.08173 36.6413 3.41499 35.6815C3.74824 34.7216 4.23953 33.8875 4.88886 33.1719C5.53819 32.4564 6.31807 31.8945 7.23537 31.4826C8.14924 31.0708 9.20053 30.8648 10.3824 30.8648C10.9939 30.8648 11.5608 30.9242 12.083 31.0394C12.6086 31.158 13.0828 31.2976 13.5122 31.4652C13.9417 31.6327 14.3161 31.8142 14.6425 32.0062C14.9655 32.2016 15.2334 32.3692 15.443 32.5053C15.9961 32.8578 16.4359 32.781 16.7589 32.2714L17.1299 31.6851C17.4528 31.1371 17.3979 30.6868 16.9581 30.3343C16.7108 30.1389 16.3809 29.919 15.9721 29.6746C15.5633 29.4303 15.0788 29.2 14.5291 28.9836C13.976 28.7672 13.3404 28.5822 12.6258 28.4251C11.9147 28.2785 11.1279 28.1982 10.269 28.1982C8.76078 28.1982 7.37967 28.467 6.12224 29.008C4.86481 29.5455 3.7826 30.2889 2.8756 31.2383C1.9686 32.1877 1.2643 33.3081 0.759268 34.5995C0.254235 35.8909 0 37.2905 0 38.7983C0 40.3236 0.243927 41.7441 0.731782 43.053C1.2162 44.3654 1.91363 45.5102 2.82063 46.4875C3.72763 47.4648 4.81327 48.2326 6.08101 48.7911C7.34875 49.3495 8.76421 49.6288 10.3274 49.6288C11.2413 49.6288 12.0864 49.531 12.8594 49.3356C13.6325 49.1401 14.3196 48.9063 14.9208 48.6305C15.522 48.3583 16.0374 48.0686 16.4668 47.7649C16.8963 47.4613 17.2433 47.203 17.5112 46.9866C17.9682 46.5747 18.0163 46.1245 17.6555 45.6358L17.2192 45.0495Z" fill="white"/>
<path d="M25.7165 37.5626V31.0741H33.6974C34.3261 31.0741 34.6422 30.7495 34.6422 30.1038V29.5174C34.6422 28.8717 34.3296 28.5471 33.6974 28.5471H23.8579C23.2292 28.5471 22.9131 28.8682 22.9131 29.5174V37.7266H25.7165V37.5626V37.5626Z" fill="white"/>
<path d="M22.9131 48.3058C22.9131 48.9515 23.2292 49.2761 23.8579 49.2761H34.1853C34.814 49.2761 35.1301 48.9515 35.1301 48.3058V47.7194C35.1301 47.0737 34.8174 46.7491 34.1853 46.7491H25.7165V40.2537H22.9131V48.3058V48.3058Z" fill="white"/>
<path d="M40.2153 48.3058C40.2153 48.9515 40.5314 49.2761 41.1601 49.2761H42.074C42.7027 49.2761 43.0188 48.9515 43.0188 48.3058V40.2537H40.2153V48.3058Z" fill="white"/>
<path d="M43.0188 35.8315C43.0188 35.5383 43.0085 35.2207 42.9913 34.8786C42.9707 34.5366 42.9535 34.2085 42.9329 33.8944C42.8951 33.5419 42.8642 33.1789 42.847 32.8089H42.9054C43.0944 33.1824 43.2868 33.5419 43.4757 33.8944C43.6303 34.2085 43.7987 34.5401 43.9911 34.8926C44.18 35.2451 44.3724 35.5593 44.5614 35.8315L45.8428 37.7302H49.117L43.3898 29.1999C43.1219 28.7706 42.7405 28.5542 42.2458 28.5542H41.1601C40.5314 28.5542 40.2153 28.8788 40.2153 29.5245V37.7337H43.0188V35.8315V35.8315Z" fill="white"/>
<path d="M56.3511 29.5211C56.3511 28.8754 56.035 28.5508 55.4063 28.5508H54.4924C53.8637 28.5508 53.5476 28.8754 53.5476 29.5211V37.7268H56.3511V29.5211Z" fill="white"/>
<path d="M53.5476 42.0233C53.5476 42.3164 53.5511 42.6341 53.5614 42.9761C53.5717 43.3182 53.5957 43.6462 53.6335 43.9604C53.6541 44.3129 53.6816 44.6654 53.7194 45.0179H53.661C53.4686 44.648 53.2797 44.285 53.0873 43.9325C52.9327 43.6183 52.7574 43.2902 52.5582 42.9482C52.3589 42.6061 52.1734 42.299 52.0016 42.0233L50.8129 40.2537H47.5491L53.2006 48.6269C53.4308 49.0597 53.8019 49.2726 54.3172 49.2726H55.4029C56.0316 49.2726 56.3476 48.9515 56.3476 48.3058V40.2537H53.5442V42.0233H53.5476Z" fill="white"/>
<path d="M70.2793 31.0741H76.2847C76.8963 31.0741 77.1986 30.7495 77.1986 30.1038V29.5174C77.1986 28.8717 76.8928 28.5471 76.2847 28.5471H61.467C60.8383 28.5471 60.5222 28.8682 60.5222 29.5174V30.1038C60.5222 30.7495 60.8383 31.0741 61.467 31.0741H67.4724V37.7266H70.2759V31.0741H70.2793Z" fill="white"/>
<path d="M67.4792 48.3058C67.4792 48.9515 67.785 49.2761 68.3931 49.2761H69.3379C69.9666 49.2761 70.2827 48.9515 70.2827 48.3058V40.2537H67.4792V48.3058Z" fill="white"/>
<path d="M88.3745 41.025L92.4491 48.599C92.6587 49.0492 93.0298 49.2726 93.5657 49.2726H94.7098C95.0705 49.2726 95.3144 49.1644 95.4415 48.9515C95.5652 48.7351 95.5309 48.4629 95.3419 48.1313L91.7105 41.2344C91.5387 40.9203 91.3944 40.6865 91.281 40.5294C91.2054 40.4491 91.147 40.3723 91.1092 40.2921V40.2537H88.378V41.025H88.3745Z" fill="white"/>
<path d="M81.3801 48.3058C81.3801 48.9515 81.6962 49.2761 82.3249 49.2761H83.2388C83.8675 49.2761 84.1836 48.9515 84.1836 48.3058V41.025V40.2537H81.3801V48.3058Z" fill="white"/>
<path d="M84.1826 31.0741H87.5598C88.2091 31.0741 88.7039 31.1055 89.0474 31.1614C89.391 31.2207 89.6968 31.308 89.9613 31.4266C90.59 31.7024 91.0641 32.1212 91.3768 32.6901C91.6894 33.259 91.8474 33.9117 91.8474 34.6552C91.8474 35.8279 91.5245 36.7633 90.8752 37.4579C90.779 37.5591 90.6759 37.6394 90.5763 37.7266H93.9397C94.4448 36.7773 94.7093 35.7197 94.7093 34.5365C94.7093 33.2067 94.4241 32.0793 93.8504 31.1614C93.2767 30.2434 92.5071 29.5558 91.5348 29.1056C91.1157 28.9101 90.6278 28.767 90.0747 28.6798C89.5215 28.5925 88.7485 28.5471 87.7556 28.5471H82.3205C81.6918 28.5471 81.3757 28.8682 81.3757 29.5174V37.7266H84.1792V31.0741H84.1826Z" fill="white"/>
<path d="M105.95 34.3342C106.046 34.062 106.132 33.7618 106.208 33.4372C106.283 33.1161 106.369 32.795 106.465 32.4844C106.541 32.1318 106.637 31.7688 106.751 31.3989H106.809C106.905 31.7688 106.991 32.1318 107.067 32.4844C107.142 32.7985 107.225 33.1161 107.311 33.4372C107.396 33.7618 107.486 34.0585 107.582 34.3342L108.733 37.7303H111.481L108.523 29.3431C108.352 28.816 107.998 28.5508 107.465 28.5508H106.091C105.558 28.5508 105.205 28.816 105.033 29.3431L102.075 37.7303H104.782L105.95 34.3342Z" fill="white"/>
<path d="M112.374 40.2537H109.591L109.815 40.9064L110.56 43.3147L112.36 48.4803C112.532 49.0074 112.886 49.2726 113.419 49.2726H114.391C114.734 49.2726 114.978 49.1714 115.119 48.9655C115.263 48.7596 115.277 48.4908 115.164 48.1592L112.374 40.2537Z" fill="white"/>
<path d="M98.3991 48.1592C98.2857 48.4908 98.296 48.7596 98.4266 48.9655C98.5606 49.1714 98.8079 49.2726 99.1721 49.2726H100.144C100.677 49.2726 101.02 49.0074 101.175 48.4803L102.948 43.3147L103.693 40.9064L103.92 40.2537H101.192L98.3991 48.1592Z" fill="white"/>
<path d="M132.897 48.1315L127.205 38.5925L132.526 29.6992C132.736 29.3676 132.777 29.0919 132.657 28.879C132.533 28.6626 132.279 28.5579 131.898 28.5579H130.695C130.2 28.5579 129.836 28.7743 129.609 29.2036L126.779 34.1668C126.607 34.46 126.445 34.7532 126.291 35.0464C126.14 35.3395 126.006 35.6048 125.889 35.8387C125.755 36.1144 125.631 36.3762 125.518 36.631H125.459L125.057 35.8107C124.923 35.5769 124.779 35.3116 124.628 35.0184C124.477 34.7252 124.322 34.4425 124.171 34.1668L121.395 29.2036C121.244 28.9872 121.086 28.8266 120.924 28.7184C120.763 28.6102 120.546 28.5579 120.282 28.5579H119.079C118.698 28.5579 118.444 28.6661 118.324 28.879C118.2 29.0954 118.241 29.3676 118.451 29.6992L123.714 38.5925L118.049 48.1315C117.839 48.4666 117.801 48.7389 117.935 48.9518C118.069 49.1682 118.327 49.2729 118.708 49.2729H119.794C120.289 49.2729 120.66 49.0495 120.911 48.5992L124.171 42.903C124.322 42.6308 124.477 42.3446 124.628 42.0514C124.779 41.7582 124.913 41.5034 125.03 41.287C125.164 41.0322 125.287 40.7774 125.401 40.5227H125.459C125.593 40.7774 125.727 41.0322 125.861 41.287C125.975 41.5034 126.109 41.7512 126.263 42.034C126.414 42.3167 126.576 42.6064 126.751 42.8996L130.039 48.5957C130.286 49.046 130.657 49.2694 131.155 49.2694H132.272C132.653 49.2694 132.908 49.1612 133.031 48.9483C133.148 48.7389 133.107 48.4631 132.897 48.1315Z" fill="white"/>
</svg>
