<svg width="139" height="23" viewBox="0 0 139 23" fill="none" xmlns="http://www.w3.org/2000/svg">
<path d="M17.9833 17.3231C17.6066 16.8208 17.1473 16.7813 16.6091 17.2011C16.3687 17.3805 16.0709 17.5922 15.7121 17.8362C15.3533 18.0766 14.9299 18.3026 14.4419 18.5143C13.9539 18.726 13.4121 18.9054 12.8129 19.0561C12.2137 19.2068 11.5679 19.2822 10.8718 19.2822C9.65544 19.2822 8.56826 19.0561 7.59949 18.604C6.6343 18.1519 5.81264 17.542 5.1345 16.7777C4.45636 16.0135 3.93968 15.1165 3.58087 14.0903C3.22207 13.0641 3.04267 11.9877 3.04267 10.861C3.04267 9.73438 3.21848 8.67949 3.56652 7.69278C3.91456 6.70607 4.42765 5.84852 5.1058 5.11297C5.78394 4.37742 6.59842 3.79975 7.55643 3.37636C8.51085 2.95297 9.6088 2.74127 10.8431 2.74127C11.4818 2.74127 12.0738 2.80227 12.6192 2.92067C13.1681 3.04267 13.6633 3.18619 14.1118 3.35841C14.5603 3.53064 14.9514 3.71722 15.2923 3.91456C15.6295 4.11549 15.9094 4.28772 16.1283 4.42765C16.706 4.79005 17.1652 4.71111 17.5025 4.18725L17.89 3.58446C18.2273 3.02114 18.1699 2.55828 17.7106 2.19589C17.4523 1.99496 17.1078 1.76891 16.6808 1.51775C16.2539 1.26658 15.748 1.02977 15.1739 0.807311C14.5962 0.584852 13.9324 0.394686 13.1861 0.233224C12.4434 0.0825257 11.6217 0 10.7247 0C9.14953 0 7.70713 0.27628 6.39391 0.832427C5.08068 1.38499 3.95044 2.14924 3.0032 3.12519C2.05595 4.10114 1.3204 5.2529 0.792959 6.58048C0.265516 7.90806 0 9.34687 0 10.8969C0 12.4649 0.254751 13.9252 0.764254 15.2707C1.27017 16.6198 1.99854 17.7967 2.94579 18.8014C3.89303 19.806 5.02686 20.5954 6.35085 21.1695C7.67484 21.7436 9.15311 22.0306 10.7857 22.0306C11.7401 22.0306 12.6228 21.9302 13.4301 21.7292C14.2374 21.5283 14.955 21.2879 15.5829 21.0044C16.2108 20.7246 16.749 20.4268 17.1975 20.1146C17.646 19.8024 18.0084 19.5369 18.2883 19.3145C18.7655 18.8911 18.8157 18.4282 18.439 17.9259L17.9833 17.3231Z" fill="#00AE8D"/>
<path d="M26.8556 9.62682V2.95663H35.1906C35.8472 2.95663 36.1773 2.62295 36.1773 1.95916V1.35636C36.1773 0.692575 35.8508 0.358887 35.1906 0.358887H24.9144C24.2578 0.358887 23.9277 0.688987 23.9277 1.35636V9.79546H26.8556V9.62682V9.62682Z" fill="#00AE8D"/>
<path d="M23.9277 20.6707C23.9277 21.3345 24.2578 21.6682 24.9144 21.6682H35.7001C36.3567 21.6682 36.6868 21.3345 36.6868 20.6707V20.0679C36.6868 19.4041 36.3603 19.0704 35.7001 19.0704H26.8556V12.3931H23.9277V20.6707V20.6707Z" fill="#00AE8D"/>
<path d="M42 20.6707C42 21.3345 42.3301 21.6682 42.9867 21.6682H43.9411C44.5977 21.6682 44.9279 21.3345 44.9279 20.6707V12.3931H42V20.6707Z" fill="#00AE8D"/>
<path d="M44.9279 7.8473C44.9279 7.5459 44.9171 7.21939 44.8991 6.86776C44.8776 6.51613 44.8597 6.17885 44.8381 5.85593C44.7987 5.49354 44.7664 5.12038 44.7484 4.74005H44.8094C45.0068 5.12397 45.2077 5.49354 45.4051 5.85593C45.5665 6.17885 45.7423 6.51972 45.9433 6.88211C46.1406 7.2445 46.3415 7.56743 46.5389 7.8473L47.8772 9.7992H51.2966L45.3154 1.03C45.0355 0.588672 44.6372 0.366211 44.1205 0.366211H42.9867C42.3301 0.366211 42 0.699902 42 1.36369V9.80278H44.9279V7.8473V7.8473Z" fill="#00AE8D"/>
<path d="M58.8517 1.35978C58.8517 0.695993 58.5216 0.362305 57.865 0.362305H56.9105C56.2539 0.362305 55.9238 0.695993 55.9238 1.35978V9.79529H58.8517V1.35978Z" fill="#00AE8D"/>
<path d="M55.9229 14.2122C55.9229 14.5136 55.9265 14.8401 55.9373 15.1917C55.9481 15.5434 55.9732 15.8807 56.0126 16.2036C56.0342 16.566 56.0629 16.9284 56.1023 17.2908H56.0413C55.8404 16.9104 55.6431 16.5373 55.4421 16.1749C55.2807 15.8519 55.0977 15.5147 54.8896 15.163C54.6815 14.8114 54.4877 14.4957 54.3083 14.2122L53.0669 12.3931H49.6582L55.5605 21.0008C55.8009 21.4457 56.1885 21.6646 56.7267 21.6646H57.8605C58.5171 21.6646 58.8472 21.3345 58.8472 20.6707V12.3931H55.9193V14.2122H55.9229Z" fill="#00AE8D"/>
<path d="M73.3971 2.95663H79.669C80.3077 2.95663 80.6234 2.62295 80.6234 1.95916V1.35636C80.6234 0.692575 80.3041 0.358887 79.669 0.358887H64.1937C63.5371 0.358887 63.207 0.688987 63.207 1.35636V1.95916C63.207 2.62295 63.5371 2.95663 64.1937 2.95663H70.4657V9.79546H73.3935V2.95663H73.3971Z" fill="#00AE8D"/>
<path d="M70.4727 20.6707C70.4727 21.3345 70.792 21.6682 71.4271 21.6682H72.4138C73.0704 21.6682 73.4005 21.3345 73.4005 20.6707V12.3931H70.4727V20.6707Z" fill="#00AE8D"/>
<path d="M92.2969 13.186L96.5523 20.9721C96.7712 21.435 97.1587 21.6646 97.7184 21.6646H98.9132C99.29 21.6646 99.5447 21.5534 99.6775 21.3345C99.8067 21.112 99.7708 20.8322 99.5734 20.4913L95.7809 13.4013C95.6015 13.0784 95.4508 12.838 95.3324 12.6765C95.2534 12.594 95.1924 12.5151 95.153 12.4325V12.3931H92.3005V13.186H92.2969Z" fill="#00AE8D"/>
<path d="M84.9922 20.6707C84.9922 21.3345 85.3223 21.6682 85.9789 21.6682H86.9333C87.5899 21.6682 87.92 21.3345 87.92 20.6707V13.186V12.3931H84.9922V20.6707Z" fill="#00AE8D"/>
<path d="M87.9178 2.95663H91.4448C92.123 2.95663 92.6396 2.98893 92.9984 3.04634C93.3572 3.10733 93.6766 3.19703 93.9529 3.31903C94.6095 3.60248 95.1046 4.03305 95.4311 4.6179C95.7576 5.20276 95.9227 5.87372 95.9227 6.63797C95.9227 7.84356 95.5854 8.80516 94.9073 9.51918C94.8068 9.62323 94.6992 9.70576 94.5951 9.79546H98.1078C98.6353 8.81951 98.9115 7.73233 98.9115 6.51598C98.9115 5.14894 98.6137 3.98999 98.0145 3.04634C97.4153 2.10268 96.6116 1.39583 95.5962 0.932974C95.1585 0.732043 94.6489 0.584933 94.0713 0.495232C93.4936 0.40553 92.6863 0.358887 91.6493 0.358887H85.973C85.3164 0.358887 84.9863 0.688987 84.9863 1.35636V9.79546H87.9142V2.95663H87.9178Z" fill="#00AE8D"/>
<path d="M110.651 6.3077C110.751 6.02784 110.841 5.71926 110.92 5.38557C110.999 5.05547 111.089 4.72537 111.189 4.40604C111.268 4.04364 111.368 3.67049 111.487 3.29015H111.548C111.648 3.67049 111.738 4.04364 111.817 4.40604C111.896 4.72896 111.982 5.05547 112.072 5.38557C112.161 5.71926 112.255 6.02425 112.355 6.3077L113.557 9.79887H116.428L113.338 1.17679C113.159 0.634995 112.789 0.362305 112.233 0.362305H110.798C110.242 0.362305 109.872 0.634995 109.693 1.17679L106.604 9.79887H109.431L110.651 6.3077Z" fill="#00AE8D"/>
<path d="M117.361 12.3931H114.455L114.688 13.064L115.467 15.5398L117.347 20.8501C117.526 21.3919 117.896 21.6646 118.452 21.6646H119.468C119.826 21.6646 120.081 21.5605 120.228 21.3488C120.379 21.1371 120.393 20.8609 120.275 20.52L117.361 12.3931Z" fill="#00AE8D"/>
<path d="M102.767 20.52C102.649 20.8609 102.66 21.1371 102.796 21.3488C102.936 21.5605 103.194 21.6646 103.575 21.6646H104.59C105.146 21.6646 105.505 21.3919 105.666 20.8501L107.518 15.5398L108.296 13.064L108.533 12.3931H105.684L102.767 20.52Z" fill="#00AE8D"/>
<path d="M138.792 20.4914L132.846 10.6853L138.404 1.54292C138.623 1.20206 138.666 0.9186 138.541 0.699729C138.411 0.47727 138.146 0.369629 137.748 0.369629H136.492C135.975 0.369629 135.595 0.592087 135.358 1.03342L132.401 6.13563C132.222 6.43702 132.053 6.73842 131.892 7.03982C131.734 7.34121 131.594 7.6139 131.472 7.8543C131.332 8.13776 131.203 8.40686 131.085 8.66879H131.024L130.604 7.8256C130.464 7.5852 130.313 7.31251 130.155 7.01111C129.997 6.70971 129.836 6.41908 129.678 6.13563L126.779 1.03342C126.621 0.810959 126.456 0.645908 126.287 0.534679C126.119 0.423449 125.893 0.369629 125.616 0.369629H124.361C123.962 0.369629 123.697 0.480858 123.571 0.699729C123.442 0.922188 123.485 1.20206 123.704 1.54292L129.201 10.6853L123.284 20.4914C123.065 20.8359 123.026 21.1157 123.166 21.3346C123.306 21.5571 123.575 21.6647 123.973 21.6647H125.107C125.624 21.6647 126.011 21.4351 126.273 20.9722L129.678 15.1165C129.836 14.8366 129.997 14.5424 130.155 14.241C130.313 13.9396 130.453 13.6777 130.575 13.4552C130.715 13.1933 130.844 12.9314 130.963 12.6695H131.024C131.164 12.9314 131.304 13.1933 131.443 13.4552C131.562 13.6777 131.702 13.9325 131.863 14.2231C132.021 14.5137 132.19 14.8115 132.373 15.1129L135.807 20.9686C136.065 21.4315 136.452 21.6611 136.973 21.6611H138.139C138.537 21.6611 138.803 21.5499 138.932 21.331C139.054 21.1157 139.011 20.8323 138.792 20.4914Z" fill="#00AE8D"/>
</svg>
