<svg width="24" height="30" viewBox="0 0 24 30" fill="none" xmlns="http://www.w3.org/2000/svg">
<path d="M8.80067 26.7816C8.80067 25.225 10.0625 25.6542 11.6191 25.6542C13.1757 25.6542 14.4375 25.225 14.4375 26.7816C14.4375 28.3382 13.1757 29.6 11.6191 29.6C10.0625 29.6 8.80067 28.3382 8.80067 26.7816Z" fill="#405464"/>
<path d="M23.84 22.684L23.568 22.444C22.7963 21.7565 22.1209 20.968 21.56 20.1C20.9474 18.902 20.5802 17.5938 20.48 16.252V12.3C20.4853 10.1925 19.7208 8.15559 18.3302 6.57198C16.9396 4.98838 15.0185 3.96709 12.928 3.70001V2.66801C12.928 2.38475 12.8155 2.1131 12.6152 1.91282C12.4149 1.71253 12.1433 1.60001 11.86 1.60001C11.5767 1.60001 11.3051 1.71253 11.1048 1.91282C10.9045 2.1131 10.792 2.38475 10.792 2.66801V3.71601C8.72021 4.00235 6.82238 5.02981 5.45002 6.60809C4.07767 8.18637 3.32378 10.2085 3.328 12.3V16.252C3.2278 17.5938 2.86062 18.902 2.248 20.1C1.69671 20.9659 1.03216 21.7542 0.272 22.444L0 22.684V24.94H23.84V22.684Z" fill="#405464"/>
<circle cx="18" cy="6" r="6" fill="#FF0000"/>
<path d="M19.0393 2.9703V9.79999H17.5721V4.63905L15.9877 5.12186V3.98749L18.8939 2.9703H19.0393Z" fill="#F0F0F0"/>
</svg>
