<svg width="28" height="28" viewBox="0 0 28 28" fill="none" xmlns="http://www.w3.org/2000/svg">
<path d="M27.9197 9.11094C28.1112 9.58125 27.9487 10.1117 27.5542 10.4562L25.0419 12.6109C25.1057 13.0648 25.1405 13.5297 25.1405 14C25.1405 14.4703 25.1057 14.9352 25.0419 15.3891L27.5542 17.5437C27.9487 17.8883 28.1112 18.4187 27.9197 18.8891C27.6644 19.5398 27.3569 20.1687 27.0088 20.7648L26.7361 21.2078C26.3531 21.8094 25.9238 22.3781 25.4538 22.9195C25.1057 23.3078 24.5429 23.4445 24.0323 23.2914L20.8005 22.318C20.023 22.8812 19.1121 23.3516 18.2476 23.7125L17.5223 26.8352C17.4063 27.3273 17.0001 27.6773 16.4663 27.8086C15.6656 27.9344 14.8417 28 13.9482 28C13.1591 28 12.3352 27.9344 11.5345 27.8086C11.0007 27.6773 10.5946 27.3273 10.4785 26.8352L9.75326 23.7125C8.83652 23.3516 7.97781 22.8812 7.20033 22.318L3.97086 23.2914C3.45795 23.4445 2.89225 23.3078 2.54876 22.9195C2.07821 22.3781 1.64885 21.8094 1.26591 21.2078L0.994373 20.7648C0.642184 20.1687 0.335832 19.5398 0.0787975 18.8891C-0.109191 18.4187 0.0492066 17.8883 0.447232 17.5437L2.95723 15.3891C2.89341 14.9352 2.86034 14.4703 2.86034 14C2.86034 13.5297 2.89341 13.0648 2.95723 12.6109L0.447232 10.4562C0.0492066 10.1117 -0.109191 9.58672 0.0787975 9.11094C0.335832 8.46016 0.642764 7.83125 0.994373 7.23516L1.26533 6.79219C1.64885 6.19062 2.07821 5.62187 2.54876 5.0832C2.89225 4.69219 3.45795 4.55656 3.97086 4.71078L7.20033 5.68203C7.97781 5.11656 8.83652 4.64625 9.75326 4.28914L10.4785 1.16648C10.5946 0.669922 11.0007 0.275625 11.5345 0.191953C12.3352 0.0656797 13.1591 0 14.0004 0C14.8417 0 15.6656 0.0656797 16.4663 0.191953C17.0001 0.275625 17.4063 0.669922 17.5223 1.16648L18.2476 4.28914C19.1121 4.64625 20.023 5.11656 20.8005 5.68203L24.0323 4.71078C24.5429 4.55656 25.1057 4.69219 25.4538 5.0832C25.9238 5.62187 26.3531 6.19062 26.7361 6.79219L27.0088 7.23516C27.3569 7.83125 27.6644 8.46016 27.9197 9.11094ZM14.0004 18.375C16.565 18.375 18.6421 16.4172 18.6421 13.9508C18.6421 11.5828 16.565 9.57578 14.0004 9.57578C11.4359 9.57578 9.35872 11.5828 9.35872 13.9508C9.35872 16.4172 11.4359 18.375 14.0004 18.375Z" fill="#405464"/>
</svg>
