<svg width="16" height="19" viewBox="0 0 16 19" fill="none" xmlns="http://www.w3.org/2000/svg">
<path d="M10.25 14.2499C10.25 16.8733 8.12335 18.9999 5.5 18.9999C2.87665 18.9999 0.75 16.3983 0.75 13.7749C0.75 11.1515 2.87665 9.0249 5.5 9.0249C8.12335 9.0249 10.25 11.6265 10.25 14.2499Z" fill="white"/>
<path d="M14.9538 3.1635C14.6922 3.1635 14.4412 3.28861 14.2562 3.51131C14.0712 3.73401 13.9672 4.03605 13.9672 4.351V8.7115H13.3121V1.976C13.3121 1.66105 13.2081 1.35901 13.0231 1.13631C12.8381 0.913611 12.5871 0.7885 12.3255 0.7885C12.0638 0.7885 11.8129 0.913611 11.6278 1.13631C11.4428 1.35901 11.3389 1.66105 11.3389 1.976V8.7115H10.6758V1.1875C10.6758 0.872555 10.5719 0.57051 10.3869 0.347811C10.2018 0.125111 9.95089 0 9.68923 0C9.42756 0 9.17661 0.125111 8.99158 0.347811C8.80655 0.57051 8.70261 0.872555 8.70261 1.1875V8.7115H8.04749V3.1635C8.04749 2.84855 7.94354 2.54651 7.75852 2.32381C7.57349 2.10111 7.32254 1.976 7.06087 1.976C6.7992 1.976 6.54825 2.10111 6.36323 2.32381C6.1782 2.54651 6.07425 2.84855 6.07425 3.1635V12.597L3.24068 10.697C3.12115 10.6116 2.98502 10.5657 2.84603 10.564C2.65417 10.5643 2.46899 10.6488 2.3251 10.8015L1.47266 11.7515L6.63465 18.05C6.87746 18.3514 7.16823 18.5909 7.48963 18.7542C7.81103 18.9174 8.15645 19.001 8.50528 19H13.3121C14.0092 19 14.6777 18.6667 15.1706 18.0734C15.6635 17.4802 15.9405 16.6755 15.9405 15.8365V4.351C15.9405 4.03605 15.8365 3.73401 15.6515 3.51131C15.4664 3.28861 15.2155 3.1635 14.9538 3.1635ZM8.04749 12.35C7.89138 12.35 7.73878 12.2943 7.60898 12.1899C7.47918 12.0855 7.37802 11.9371 7.31828 11.7635C7.25854 11.59 7.24291 11.3989 7.27336 11.2147C7.30382 11.0304 7.37899 10.8611 7.48937 10.7282C7.59976 10.5954 7.7404 10.5049 7.89351 10.4682C8.04662 10.4316 8.20532 10.4504 8.34954 10.5223C8.49377 10.5942 8.61704 10.716 8.70377 10.8722C8.7905 11.0284 8.83679 11.2121 8.83679 11.4C8.83679 11.6519 8.75363 11.8936 8.60561 12.0717C8.45759 12.2499 8.25683 12.35 8.04749 12.35ZM9.62608 15.2C9.46997 15.2 9.31737 15.1443 9.18757 15.0399C9.05777 14.9355 8.95661 14.7871 8.89687 14.6135C8.83713 14.44 8.8215 14.2489 8.85195 14.0647C8.88241 13.8804 8.95758 13.7111 9.06797 13.5782C9.17835 13.4454 9.31899 13.3549 9.4721 13.3182C9.62521 13.2816 9.78391 13.3004 9.92813 13.3723C10.0724 13.4442 10.1956 13.566 10.2824 13.7222C10.3691 13.8784 10.4154 14.0621 10.4154 14.25C10.4154 14.5019 10.3322 14.7436 10.1842 14.9217C10.0362 15.0999 9.83542 15.2 9.62608 15.2ZM13.5726 13.3C13.4165 13.3 13.2639 13.2443 13.1341 13.1399C13.0043 13.0355 12.9031 12.8871 12.8433 12.7135C12.7836 12.54 12.768 12.3489 12.7984 12.1647C12.8289 11.9804 12.9041 11.8111 13.0144 11.6782C13.1248 11.5454 13.2655 11.4549 13.4186 11.4182C13.5717 11.3816 13.7304 11.4004 13.8746 11.4723C14.0188 11.5442 14.1421 11.666 14.2288 11.8222C14.3156 11.9784 14.3619 12.1621 14.3619 12.35C14.3619 12.6019 14.2787 12.8436 14.1307 13.0217C13.9827 13.1999 13.7819 13.3 13.5726 13.3ZM12.7833 16.15C12.6272 16.15 12.4746 16.0943 12.3448 15.9899C12.215 15.8855 12.1138 15.7371 12.0541 15.5635C11.9943 15.39 11.9787 15.1989 12.0091 15.0147C12.0396 14.8304 12.1148 14.6611 12.2251 14.5282C12.3355 14.3954 12.4762 14.3049 12.6293 14.2682C12.7824 14.2316 12.9411 14.2504 13.0853 14.3223C13.2295 14.3942 13.3528 14.516 13.4395 14.6722C13.5263 14.8284 13.5726 15.0121 13.5726 15.2C13.5726 15.4519 13.4894 15.6936 13.3414 15.8717C13.1934 16.0499 12.9926 16.15 12.7833 16.15ZM11.2047 12.35C11.0486 12.35 10.896 12.2943 10.7662 12.1899C10.6364 12.0855 10.5352 11.9371 10.4755 11.7635C10.4157 11.59 10.4001 11.3989 10.4305 11.2147C10.461 11.0304 10.5362 10.8611 10.6466 10.7282C10.7569 10.5954 10.8976 10.5049 11.0507 10.4682C11.2038 10.4316 11.3625 10.4504 11.5067 10.5223C11.651 10.5942 11.7742 10.716 11.861 10.8722C11.9477 11.0284 11.994 11.2121 11.994 11.4C11.994 11.6519 11.9108 11.8936 11.7628 12.0717C11.6148 12.2499 11.414 12.35 11.2047 12.35Z" fill="#4DAA8F"/>
</svg>
