<svg width="12" height="18" viewBox="0 0 12 18" fill="none" xmlns="http://www.w3.org/2000/svg">
<path d="M8.32052 8.20547L4.51239 7.09453C4.07163 6.96797 3.76487 6.55664 3.76487 6.09961C3.76487 5.52656 4.23031 5.0625 4.80505 5.0625H7.14282C7.573 5.0625 7.99613 5.19258 8.34873 5.43164C8.56382 5.57578 8.85295 5.54063 9.03631 5.36133L10.2634 4.16602C10.5137 3.92344 10.4785 3.51914 10.1999 3.30469C9.33602 2.62969 8.25705 2.25352 7.14987 2.25V0.5625C7.14987 0.253125 6.896 0 6.58571 0H5.45737C5.14708 0 4.8932 0.253125 4.8932 0.5625V2.25H4.80505C2.55896 2.25 0.753621 4.17305 0.961658 6.45469C1.10975 8.07539 2.35092 9.39375 3.91649 9.85078L7.53069 10.9055C7.97144 11.0355 8.27821 11.4434 8.27821 11.9004C8.27821 12.4734 7.81277 12.9375 7.23802 12.9375H4.90025C4.47008 12.9375 4.04695 12.8074 3.69435 12.5684C3.47926 12.4242 3.19012 12.4594 3.00677 12.6387L1.7797 13.834C1.52935 14.0766 1.56461 14.4809 1.84317 14.6953C2.70705 15.3703 3.78602 15.7465 4.8932 15.75V17.4375C4.8932 17.7469 5.14708 18 5.45737 18H6.58571C6.896 18 7.14987 17.7469 7.14987 17.4375V15.743C8.79301 15.7113 10.3339 14.7375 10.8769 13.1871C11.635 11.0215 10.3621 8.79961 8.32052 8.20547Z" fill="#E00100"/>
</svg>
