<svg width="35" height="36" viewBox="0 0 35 36" fill="none" xmlns="http://www.w3.org/2000/svg">
<ellipse cx="17.5" cy="18.3016" rx="17.5" ry="17.576" fill="#FAFAF8"/>
<path d="M17.521 9.05078C14.1784 9.05078 12.0133 10.2916 10.3136 12.5045C10.0052 12.9059 10.1003 13.4563 10.5304 13.7518L12.3369 14.9928C12.7713 15.2912 13.3894 15.2214 13.7295 14.8354C14.7785 13.6448 15.5566 12.9592 17.1951 12.9592C18.4834 12.9592 20.0769 13.7104 20.0769 14.8423C20.0769 15.698 19.2973 16.1374 18.0252 16.7836C16.5418 17.5371 14.5788 18.4749 14.5788 20.8207V21.1921C14.5788 21.695 15.0288 22.1027 15.5838 22.1027H18.6187C19.1738 22.1027 19.6238 21.695 19.6238 21.1921V20.9731C19.6238 19.3469 24.8697 19.2792 24.8697 14.8786C24.8697 11.5646 21.0755 9.05078 17.521 9.05078ZM17.1013 23.2204C15.5018 23.2204 14.2004 24.3995 14.2004 25.8487C14.2004 27.2979 15.5018 28.4769 17.1013 28.4769C18.7008 28.4769 20.0022 27.2979 20.0022 25.8487C20.0022 24.3994 18.7008 23.2204 17.1013 23.2204Z" fill="#405464"/>
</svg>
