<svg width="23" height="21" viewBox="0 0 23 21" fill="none" xmlns="http://www.w3.org/2000/svg">
<path d="M1.22768 9.72321L10.2511 0.638394C10.4967 0.331474 10.9877 0.331474 11.2946 0.638394L12.4609 1.86607C12.7679 2.11161 12.7679 2.60268 12.4609 2.9096L5.21763 10.2143L12.4609 17.5804C12.7679 17.8873 12.7679 18.317 12.4609 18.6239L11.2946 19.8516C10.9877 20.1585 10.4967 20.1585 10.2511 19.8516L1.22768 10.7667C0.92076 10.4598 0.92076 10.0301 1.22768 9.72321ZM11.0491 10.7667C10.7422 10.4598 10.7422 10.0301 11.0491 9.72321L20.0725 0.638394C20.3181 0.331474 20.8092 0.331474 21.1161 0.638394L22.2824 1.86607C22.5893 2.11161 22.5893 2.60268 22.2824 2.9096L15.0391 10.2143L22.2824 17.5804C22.5893 17.8873 22.5893 18.317 22.2824 18.6239L21.1161 19.8516C20.8092 20.1585 20.3181 20.1585 20.0725 19.8516L11.0491 10.7667Z" fill="#FBFDFD"/>
</svg>
