<svg width="23" height="21" viewBox="0 0 23 21" fill="none" xmlns="http://www.w3.org/2000/svg">
<path d="M21.8527 10.7667L12.8906 19.8516C12.5837 20.1585 12.0926 20.1585 11.8471 19.8516L10.6194 18.6239C10.3125 18.317 10.3125 17.8873 10.6194 17.5804L17.8627 10.2143L10.6194 2.9096C10.3125 2.60268 10.3125 2.11161 10.6194 1.86607L11.8471 0.638394C12.0926 0.331474 12.5837 0.331474 12.8906 0.638394L21.8527 9.72321C22.1596 10.0301 22.1596 10.4598 21.8527 10.7667ZM12.0313 9.72321C12.3382 10.0301 12.3382 10.4598 12.0313 10.7667L3.0692 19.8516C2.76228 20.1585 2.27121 20.1585 2.02567 19.8516L0.797992 18.6239C0.491072 18.317 0.491072 17.8873 0.797992 17.5804L8.0413 10.2143L0.797992 2.9096C0.491072 2.60268 0.491072 2.11161 0.797992 1.86607L2.02567 0.638394C2.27121 0.331474 2.76228 0.331474 3.0692 0.638394L12.0313 9.72321Z" fill="#FBFDFD"/>
</svg>
