<svg width="24" height="24" viewBox="0 0 24 24" fill="none" xmlns="http://www.w3.org/2000/svg">
<path d="M7.82071 12.5783C7.58312 12.5783 7.35086 12.6486 7.15331 12.7805C6.95576 12.9123 6.80179 13.0997 6.71087 13.3189C6.61995 13.5381 6.59616 13.7794 6.64251 14.0121C6.68886 14.2448 6.80327 14.4586 6.97128 14.6264C7.13928 14.7942 7.35332 14.9084 7.58635 14.9547C7.81937 15.001 8.06091 14.9773 8.28041 14.8865C8.49992 14.7957 8.68753 14.6419 8.81953 14.4446C8.95153 14.2473 9.02198 14.0153 9.02198 13.778C9.02198 13.4598 8.89542 13.1547 8.67014 12.9297C8.44485 12.7047 8.1393 12.5783 7.82071 12.5783ZM7.82071 7.20334C7.58312 7.20334 7.35086 7.2737 7.15331 7.40553C6.95576 7.53737 6.80179 7.72474 6.71087 7.94397C6.61995 8.1632 6.59616 8.40443 6.64251 8.63716C6.68886 8.86989 6.80327 9.08367 6.97128 9.25146C7.13928 9.41925 7.35332 9.53351 7.58635 9.57981C7.81937 9.6261 8.06091 9.60234 8.28041 9.51153C8.49992 9.42073 8.68753 9.26695 8.81953 9.06965C8.95153 8.87235 9.02198 8.64039 9.02198 8.4031C9.02198 8.0849 8.89542 7.77974 8.67014 7.55474C8.44485 7.32974 8.1393 7.20334 7.82071 7.20334ZM12.0132 9.60286C11.6946 9.60286 11.389 9.72926 11.1637 9.95426C10.9384 10.1793 10.8119 10.4844 10.8119 10.8026V12.0024C10.8119 12.3206 10.9384 12.6257 11.1637 12.8507C11.389 13.0757 11.6946 13.2021 12.0132 13.2021C12.3318 13.2021 12.6373 13.0757 12.8626 12.8507C13.0879 12.6257 13.2144 12.3206 13.2144 12.0024V10.8026C13.2144 10.4844 13.0879 10.1793 12.8626 9.95426C12.6373 9.72926 12.3318 9.60286 12.0132 9.60286ZM22.224 7.8872C21.8096 7.64906 21.3519 7.49566 20.8775 7.43593C20.4032 7.37619 19.9217 7.41132 19.4611 7.53927C18.9817 7.66752 18.5352 7.89659 18.1517 8.21114L4.21688 0.160738C4.03426 0.0554366 3.82711 0 3.61624 0C3.40537 0 3.19822 0.0554366 3.0156 0.160738C2.83005 0.264908 2.67554 0.416451 2.56789 0.599855C2.46024 0.783259 2.40332 0.991937 2.40295 1.20453V17.0054C1.69402 17.2442 1.07935 17.7017 0.647554 18.3119C0.215758 18.9222 -0.0108511 19.6536 0.000399542 20.4007C6.54846e-05 21.3389 0.366533 22.2401 1.02174 22.9124C1.67694 23.5848 2.56908 23.975 3.50813 24H4.20486C8.14113 23.9908 12.0049 22.9415 15.4038 20.9586C18.8027 18.9758 21.6158 16.13 23.5574 12.7102C24.0059 11.892 24.1187 10.9319 23.8722 10.0321C23.6257 9.13242 23.0391 8.36342 22.236 7.8872H22.224ZM4.8055 3.28012L16.6861 10.1308C15.3681 12.095 13.606 13.7222 11.5422 14.881C9.47846 16.0397 7.17078 16.6976 4.8055 16.8014V3.28012ZM21.4672 11.5345C19.6839 14.6727 17.0794 17.2673 13.9328 19.0404C10.7861 20.8136 7.21584 21.6985 3.60423 21.6005C3.28563 21.6005 2.98008 21.4741 2.7548 21.2491C2.52951 21.0241 2.40295 20.7189 2.40295 20.4007C2.40201 20.24 2.43343 20.0807 2.49534 19.9323C2.55725 19.7839 2.64838 19.6494 2.76333 19.5369C2.98901 19.3196 3.29078 19.1991 3.60423 19.201H4.21688C7.30141 19.1997 10.3303 18.3804 12.9939 16.8269C15.6575 15.2733 17.8602 13.0412 19.377 10.3587C19.4499 10.2271 19.5495 10.1122 19.6695 10.0213C19.7895 9.93036 19.9272 9.86549 20.0737 9.83082C20.3766 9.74778 20.7 9.78654 20.9747 9.93879C21.2503 10.0868 21.4572 10.3363 21.5515 10.6343C21.6457 10.9323 21.6198 11.2553 21.4792 11.5345H21.4672Z" fill="#FAFAF8"/>
</svg>
