<svg width="24" height="27" viewBox="0 0 24 27" fill="none" xmlns="http://www.w3.org/2000/svg">
<path d="M7.80377 14.8136H5.75717C5.39901 14.8136 5.14319 14.5578 5.14319 14.1996V12.153C5.14319 11.846 5.39901 11.539 5.75717 11.539H7.80377C8.11076 11.539 8.41775 11.846 8.41775 12.153V14.1996C8.41775 14.5578 8.11076 14.8136 7.80377 14.8136ZM13.3296 14.1996C13.3296 14.5578 13.0226 14.8136 12.7156 14.8136H10.669C10.3109 14.8136 10.055 14.5578 10.055 14.1996V12.153C10.055 11.846 10.3109 11.539 10.669 11.539H12.7156C13.0226 11.539 13.3296 11.846 13.3296 12.153V14.1996ZM18.2414 14.1996C18.2414 14.5578 17.9344 14.8136 17.6274 14.8136H15.5808C15.2227 14.8136 14.9669 14.5578 14.9669 14.1996V12.153C14.9669 11.846 15.2227 11.539 15.5808 11.539H17.6274C17.9344 11.539 18.2414 11.846 18.2414 12.153V14.1996ZM13.3296 19.1115C13.3296 19.4696 13.0226 19.7254 12.7156 19.7254H10.669C10.3109 19.7254 10.055 19.4696 10.055 19.1115V17.0649C10.055 16.7579 10.3109 16.4509 10.669 16.4509H12.7156C13.0226 16.4509 13.3296 16.7579 13.3296 17.0649V19.1115ZM8.41775 19.1115C8.41775 19.4696 8.11076 19.7254 7.80377 19.7254H5.75717C5.39901 19.7254 5.14319 19.4696 5.14319 19.1115V17.0649C5.14319 16.7579 5.39901 16.4509 5.75717 16.4509H7.80377C8.11076 16.4509 8.41775 16.7579 8.41775 17.0649V19.1115ZM18.2414 19.1115C18.2414 19.4696 17.9344 19.7254 17.6274 19.7254H15.5808C15.2227 19.7254 14.9669 19.4696 14.9669 19.1115V17.0649C14.9669 16.7579 15.2227 16.4509 15.5808 16.4509H17.6274C17.9344 16.4509 18.2414 16.7579 18.2414 17.0649V19.1115ZM23.1533 5.80855V23.8186C23.1533 25.2001 22.0276 26.2746 20.6974 26.2746H2.68726C1.30581 26.2746 0.231343 25.2001 0.231343 23.8186V5.80855C0.231343 4.47826 1.30581 3.35263 2.68726 3.35263H5.14319V0.692052C5.14319 0.385062 5.39901 0.0780718 5.75717 0.0780718H7.80377C8.11076 0.0780718 8.41775 0.385062 8.41775 0.692052V3.35263H14.9669V0.692052C14.9669 0.385062 15.2227 0.0780718 15.5808 0.0780718H17.6274C17.9344 0.0780718 18.2414 0.385062 18.2414 0.692052V3.35263H20.6974C22.0276 3.35263 23.1533 4.47826 23.1533 5.80855ZM20.6974 23.5117V8.26447H2.68726V23.5117C2.68726 23.7163 2.78959 23.8186 2.99425 23.8186H20.3904C20.5439 23.8186 20.6974 23.7163 20.6974 23.5117Z" fill="#575757"/>
</svg>
