<svg width="35" height="36" viewBox="0 0 35 36" fill="none" xmlns="http://www.w3.org/2000/svg">
<ellipse cx="17.5" cy="18.0946" rx="17.5" ry="17.576" fill="#FAFAF8"/>
<path d="M25.8807 22.0414C26.4377 23.1555 27.2547 24.0467 27.2547 24.0467C27.5146 24.3066 27.5518 24.678 27.4403 24.9751C27.2918 25.3093 26.9947 25.495 26.6605 25.495C24.6552 25.495 23.0584 24.7523 21.9815 24.0838C21.276 24.2324 20.5333 24.3066 19.7906 24.3066C16.5599 24.3066 13.849 22.8213 12.6607 20.7046C12.3265 20.6303 11.9552 20.5932 11.6209 20.5189C10.544 21.1873 8.94724 21.9672 6.9791 21.9672C6.60775 21.9672 6.31067 21.7443 6.16213 21.4473C6.05073 21.1131 6.125 20.7417 6.34781 20.5189C6.34781 20.4818 7.16477 19.5905 7.75893 18.4765C6.71916 17.4367 6.125 16.1741 6.125 14.8001C6.125 11.5323 9.57853 8.85858 13.849 8.85858C17.0426 8.85858 19.7906 10.3811 20.9418 12.5349C24.6552 12.9434 27.5146 15.3943 27.5146 18.3651C27.5146 19.7762 26.8833 21.0388 25.8807 22.0414ZM11.2867 18.5879L12.0294 18.7736C12.6236 18.9221 13.2177 18.9592 13.849 18.9592C17.0426 18.9592 19.7906 17.0654 19.7906 14.8001C19.7906 12.5721 17.0426 10.6411 13.849 10.6411C10.6183 10.6411 7.90747 12.5721 7.90747 14.8001C7.90747 15.8771 8.50162 16.694 8.98438 17.1768L9.91275 18.1051L9.35572 19.2563C9.24432 19.442 9.13292 19.6277 9.05865 19.8133C9.57853 19.6277 10.1356 19.3677 10.6554 18.9964L11.2867 18.5879ZM24.6181 20.7417C25.1009 20.259 25.7322 19.442 25.7322 18.3651C25.7322 16.5455 23.9125 14.9858 21.5359 14.4288C21.5359 14.5773 21.5731 14.6887 21.5731 14.8001C21.5731 17.8081 18.6765 20.2961 14.8888 20.7046C15.9657 21.7815 17.7853 22.5242 19.7906 22.5242C20.3847 22.5242 21.016 22.487 21.6102 22.3385L22.3158 22.1528L22.9842 22.5613C23.5041 22.8955 24.024 23.1926 24.581 23.3783C24.4696 23.1926 24.3582 23.0069 24.2839 22.8213L23.6897 21.6701L24.6181 20.7417Z" fill="#575757"/>
</svg>
