<svg width="27" height="41" viewBox="0 0 27 41" fill="none" xmlns="http://www.w3.org/2000/svg">
<path d="M21.5322 19.7746L18.166 17.8769C17.9754 17.8002 17.7631 17.7905 17.5659 17.8495C17.3687 17.9084 17.199 18.0323 17.0864 18.1995L12.5426 23.9687L7.98887 18.171C7.87728 18.0001 7.70598 17.8736 7.50609 17.8144C7.3062 17.7552 7.09098 17.7673 6.89952 17.8484L3.53333 19.7462C2.71557 20.1904 2.04467 20.8495 1.5983 21.6472C1.15193 22.4449 0.948356 23.3484 1.01114 24.2533V32.3282C1.01114 35.3077 2.91505 37.7273 5.24096 37.7273H19.8343C22.1701 37.7273 24.0642 35.3077 24.0642 32.3282V24.2533C24.1203 23.3521 23.9125 22.4539 23.4647 21.6617C23.0168 20.8695 22.347 20.2155 21.5322 19.7746Z" stroke="#FAFAF8" stroke-width="1.88953" stroke-linecap="round" stroke-linejoin="round"/>
<path d="M12.7784 15.904C16.8435 15.904 20.1389 12.7178 20.1389 8.78744C20.1389 4.85708 16.8435 1.6709 12.7784 1.6709C8.71337 1.6709 5.41797 4.85708 5.41797 8.78744C5.41797 12.7178 8.71337 15.904 12.7784 15.904Z" stroke="#FAFAF8" stroke-width="1.88953" stroke-miterlimit="10"/>
<ellipse cx="18.0984" cy="32.3529" rx="8.44999" ry="8.48671" fill="#FAFAF8"/>
<path d="M22.2677 32.1702C22.4573 32.1702 22.6469 32.3598 22.6469 32.5494V33.3077C22.6469 33.521 22.4573 33.6869 22.2677 33.6869H18.8552V37.0993C18.8552 37.3126 18.6656 37.4785 18.476 37.4785H17.7177C17.5044 37.4785 17.3385 37.3126 17.3385 37.0993V33.6869H13.926C13.7128 33.6869 13.5469 33.521 13.5469 33.3077V32.5494C13.5469 32.3598 13.7128 32.1702 13.926 32.1702H17.3385V28.7577C17.3385 28.5681 17.5044 28.3785 17.7177 28.3785H18.476C18.6656 28.3785 18.8552 28.5681 18.8552 28.7577V32.1702H22.2677Z" fill="#405464"/>
</svg>
