<svg width="17" height="20" viewBox="0 0 17 20" fill="none" xmlns="http://www.w3.org/2000/svg">
<path d="M11.9531 12.667C11.9531 12.4429 11.729 12.2188 11.5049 12.2188H8.96484V9.67871C8.96484 9.45459 8.74072 9.23047 8.5166 9.23047H8.21777C7.9563 9.23047 7.76953 9.45459 7.76953 9.67871V12.2188H5.22949C4.96802 12.2188 4.78125 12.4429 4.78125 12.667V12.9658C4.78125 13.2273 4.96802 13.4141 5.22949 13.4141H7.76953V15.9541C7.76953 16.2156 7.9563 16.4023 8.21777 16.4023H8.5166C8.74072 16.4023 8.96484 16.2156 8.96484 15.9541V13.4141H11.5049C11.729 13.4141 11.9531 13.2273 11.9531 12.9658V12.667ZM16.7344 4.44922C16.7344 3.47803 15.9126 2.65625 14.9414 2.65625H13.1484V0.713867C13.1484 0.489746 12.9243 0.265625 12.7002 0.265625H12.4014C12.1399 0.265625 11.9531 0.489746 11.9531 0.713867V2.65625H4.78125V0.713867C4.78125 0.489746 4.55713 0.265625 4.33301 0.265625H4.03418C3.77271 0.265625 3.58594 0.489746 3.58594 0.713867V2.65625H1.79297C0.784424 2.65625 0 3.47803 0 4.44922V17.5977C0 18.6062 0.784424 19.3906 1.79297 19.3906H14.9414C15.9126 19.3906 16.7344 18.6062 16.7344 17.5977V4.44922ZM1.19531 4.44922C1.19531 4.15039 1.45679 3.85156 1.79297 3.85156H14.9414C15.2402 3.85156 15.5391 4.15039 15.5391 4.44922V6.24219H1.19531V4.44922ZM15.5391 17.5977C15.5391 17.9338 15.2402 18.1953 14.9414 18.1953H1.79297C1.45679 18.1953 1.19531 17.9338 1.19531 17.5977V7.4375H15.5391V17.5977Z" fill="#FAFAF8"/>
</svg>
