<svg width="28" height="30" viewBox="0 0 28 30" fill="none" xmlns="http://www.w3.org/2000/svg">
<path d="M10.3861 26.6675C10.3861 24.9953 11.8378 25.4564 13.6286 25.4564C15.4194 25.4564 16.8711 24.9953 16.8711 26.6675C16.8711 28.3397 15.4194 29.6953 13.6286 29.6953C11.8378 29.6953 10.3861 28.3397 10.3861 26.6675Z" fill="#FAFAF8"/>
<path d="M27.4272 22.6503L27.1142 22.3925C26.2265 21.6539 25.4494 20.8069 24.8041 19.8744C24.0993 18.5874 23.6769 17.182 23.5616 15.7405V11.4949C23.5677 9.23083 22.6882 7.0426 21.0883 5.34135C19.4884 3.6401 17.2783 2.54294 14.8732 2.25601V1.14734C14.8732 0.843048 14.7438 0.551217 14.5134 0.336049C14.2829 0.12088 13.9704 0 13.6445 0C13.3187 0 13.0062 0.12088 12.7757 0.336049C12.5453 0.551217 12.4159 0.843048 12.4159 1.14734V2.2732C10.0323 2.58081 7.84893 3.68461 6.27008 5.38014C4.69123 7.07567 3.82391 9.24805 3.82876 11.4949V15.7405C3.71348 17.182 3.29105 18.5874 2.58625 19.8744C1.95201 20.8046 1.18746 21.6515 0.312927 22.3925L0 22.6503V25.0739H27.4272V22.6503Z" fill="#FAFAF8"/>
</svg>
