<svg width="24" height="24" viewBox="0 0 24 24" fill="none" xmlns="http://www.w3.org/2000/svg">
<path d="M0 9.39339C0.498706 6.68747 1.79841 4.44543 3.89912 2.66726C5.99982 0.889086 8.46918 0 11.3072 0C12.7266 0 14.0647 0.231935 15.3214 0.695806C16.5781 1.15968 17.7048 1.81683 18.7015 2.66726C18.4329 3.16978 18.217 3.60002 18.0535 3.95798C17.8901 4.31593 17.78 4.64915 17.7232 4.95762C16.8793 4.14585 15.9106 3.503 14.8173 3.02908C13.724 2.55516 12.554 2.31858 11.3072 2.31935C9.36992 2.31935 7.63404 2.86556 6.09956 3.95798C4.56508 5.05039 3.45258 6.44665 2.76206 8.14673C2.24418 8.1274 1.74048 8.22404 1.25099 8.43665C0.761486 8.64926 0.344491 8.96817 0 9.39339ZM11.3072 23.1935C8.46841 23.1935 5.99905 22.3045 3.89912 20.5263C1.79918 18.7481 0.499473 16.5061 0 13.8002C0.326077 14.2254 0.733865 14.5493 1.22336 14.772C1.71286 14.9946 2.22576 15.0959 2.76206 15.0758C3.45258 16.7767 4.56508 18.1683 6.09956 19.2506C7.63404 20.333 9.36992 20.8742 11.3072 20.8742C13.8583 20.8742 16.0307 19.9708 17.8245 18.164C19.6183 16.3572 20.5149 14.1682 20.5141 11.5968C20.5141 11.2682 20.4995 10.9396 20.4704 10.611C20.4412 10.2825 20.3886 9.9539 20.3127 9.62532C20.5237 9.70263 20.7397 9.76062 20.9606 9.79927C21.1816 9.83793 21.4164 9.85726 21.6649 9.85726C21.8376 9.85726 22.0102 9.84759 22.1828 9.82827C22.3555 9.80894 22.5185 9.77994 22.6719 9.74129C22.7103 10.0505 22.7441 10.3551 22.7732 10.6551C22.8024 10.9551 22.8166 11.269 22.8158 11.5968C22.8158 13.201 22.5135 14.7086 21.9089 16.1195C21.3043 17.5305 20.4845 18.7578 19.4495 19.8015C18.4138 20.8452 17.1958 21.6717 15.7956 22.2809C14.3953 22.8901 12.8992 23.1943 11.3072 23.1935ZM7.1641 11.1329L9.58091 8.69758L7.13533 6.23327L5.92693 7.45093L7.1641 8.66859L5.92693 9.91524L7.1641 11.1329ZM21.6649 8.11774C21.032 8.11774 20.4899 7.89083 20.0388 7.43701C19.5876 6.98319 19.3625 6.43698 19.3632 5.79839C19.3632 5.27653 19.5071 4.72066 19.7948 4.13077C20.0825 3.54088 20.7059 2.55052 21.6649 1.15968C22.624 2.55129 23.2474 3.54204 23.5351 4.13193C23.8228 4.72182 23.9667 5.2773 23.9667 5.79839C23.9667 6.43621 23.7411 6.98242 23.29 7.43701C22.8388 7.8916 22.2972 8.11851 21.6649 8.11774ZM15.4791 11.1619L16.7162 9.91524L15.4791 8.66859L16.6875 7.45093L15.4791 6.23327L13.0335 8.69758L15.4791 11.1619ZM11.3072 13.3363C10.8085 13.3363 10.324 13.3943 9.85367 13.5102C9.38335 13.6262 8.93758 13.7905 8.51637 14.0031L4.40204 11.5968C4.40204 11.2875 4.32532 10.9976 4.17187 10.727C4.01842 10.4564 3.80743 10.2438 3.5389 10.0892C3.11691 9.85726 2.68074 9.80391 2.23037 9.92916C1.78 10.0544 1.42975 10.3204 1.17963 10.727C0.94946 11.1522 0.89652 11.5917 1.02081 12.0456C1.14511 12.4994 1.40904 12.8523 1.81261 13.1044C2.08114 13.259 2.36885 13.3363 2.67575 13.3363C2.98265 13.3363 3.27036 13.259 3.5389 13.1044L6.96271 15.1048C6.63663 15.4334 6.34393 15.7863 6.0846 16.1636C5.82527 16.5409 5.60968 16.9514 5.43782 17.3952H7.33673C7.73954 16.6994 8.28619 16.1388 8.97671 15.7136C9.66723 15.2884 10.4441 15.0758 11.3072 15.0758C12.1703 15.0758 12.9472 15.2884 13.6377 15.7136C14.3282 16.1388 14.8749 16.6994 15.2777 17.3952H17.1766C16.7162 16.1968 15.9632 15.2208 14.9175 14.467C13.8717 13.7132 12.6683 13.3363 11.3072 13.3363Z" fill="#FAFAF8"/>
</svg>
