<svg width="19" height="21" viewBox="0 0 19 21" fill="none" xmlns="http://www.w3.org/2000/svg">
<path d="M2.48633 18.7793C4.63867 20.9316 8.12695 20.9316 10.2793 18.7793C12.7285 16.3301 15.1035 13.9551 17.5527 11.5059C17.7383 11.3203 17.7383 11.0605 17.5527 10.875L16.9219 10.2441C16.7363 10.0586 16.4766 10.0586 16.291 10.2441C13.8418 12.6934 11.4668 15.0684 9.01758 17.5176C7.57031 18.9648 5.19531 18.9648 3.74805 17.5176C2.30078 16.0703 2.30078 13.6953 3.74805 12.248L12.0977 3.89844C13.0625 2.93359 14.6211 2.93359 15.5859 3.89844C16.5508 4.86328 16.5508 6.42188 15.5859 7.38672L8.57227 14.4004C8.08984 14.8828 7.31055 14.8828 6.82812 14.4004C6.38281 13.9551 6.38281 13.1758 6.82812 12.6934L12.8027 6.75586C12.9883 6.57031 12.9883 6.31055 12.8027 6.125L12.1719 5.49414C11.9863 5.30859 11.7266 5.30859 11.541 5.49414L5.60352 11.4316C4.41602 12.6191 4.41602 14.5117 5.60352 15.6621C6.75391 16.8496 8.64648 16.8496 9.79688 15.6621L16.8477 8.64844C18.5176 6.97852 18.5176 4.30664 16.8477 2.63672C15.1777 0.966797 12.5059 0.966797 10.8359 2.63672L2.48633 10.9863C0.333984 13.1387 0.333984 16.627 2.48633 18.7793Z" fill="#747877"/>
</svg>
