<svg width="19" height="19" viewBox="0 0 19 19" fill="none" xmlns="http://www.w3.org/2000/svg">
<path d="M11.4258 7.69922C13.1191 9.39258 13.2188 12.1152 11.7246 13.9082C11.5254 14.1738 11.6582 14.041 8.93555 16.7637C7.10938 18.5898 4.1543 18.5898 2.36133 16.7637C0.535156 14.9707 0.535156 12.0156 2.36133 10.1895C3.42383 9.12695 4.05469 8.49609 4.45312 8.09766C4.68555 7.86523 5.11719 8.03125 5.11719 8.36328C5.15039 8.79492 5.18359 9.22656 5.2832 9.625C5.31641 9.75781 5.2832 9.89062 5.18359 9.99023L3.65625 11.5176C2.56055 12.6133 2.56055 14.373 3.65625 15.4688C4.75195 16.5645 6.51172 16.5645 7.60742 15.4688L10.0977 12.9785C11.1934 11.8828 11.1934 10.123 10.0977 9.02734C9.89844 8.79492 9.63281 8.62891 9.33398 8.49609C9.20117 8.39648 9.10156 8.23047 9.13477 8.06445C9.16797 7.69922 9.33398 7.33398 9.63281 7.06836L9.76562 6.93555C9.89844 6.80273 10.0645 6.76953 10.2305 6.83594C10.6621 7.06836 11.0605 7.33398 11.4258 7.69922ZM16.6055 2.51953C18.4316 4.3125 18.4316 7.26758 16.6055 9.09375C15.543 10.1562 14.9121 10.7871 14.5137 11.1855C14.2812 11.418 13.8496 11.252 13.8496 10.9199C13.8164 10.4883 13.7832 10.0566 13.6836 9.6582C13.6504 9.52539 13.6836 9.39258 13.7832 9.29297L15.3105 7.76562C16.4062 6.66992 16.4062 4.91016 15.3105 3.81445C14.2148 2.71875 12.4551 2.71875 11.3594 3.81445L8.86914 6.30469C7.77344 7.40039 7.77344 9.16016 8.86914 10.2559C9.06836 10.4883 9.33398 10.6543 9.63281 10.7871C9.76562 10.8867 9.86523 11.0527 9.83203 11.2188C9.79883 11.584 9.63281 11.9492 9.33398 12.2148L9.20117 12.3477C9.06836 12.4805 8.90234 12.5137 8.73633 12.4473C8.30469 12.2148 7.90625 11.9492 7.54102 11.584C5.84766 9.89062 5.74805 7.16797 7.24219 5.375C7.44141 5.10938 7.30859 5.24219 10.0312 2.51953C11.8574 0.693359 14.8125 0.693359 16.6055 2.51953Z" fill="#747877"/>
</svg>
