<svg width="33" height="31" viewBox="0 0 33 31" fill="none" xmlns="http://www.w3.org/2000/svg">
<path d="M28.5347 9.79711C28.5347 10.7462 28.1406 11.6564 27.4391 12.3275C26.7376 12.9986 25.7862 13.3757 24.7941 13.3757C23.8021 13.3757 22.8506 12.9986 22.1492 12.3275C21.4477 11.6564 21.0536 10.7462 21.0536 9.79711C21.0536 8.84801 21.4477 7.9378 22.1492 7.26669C22.8506 6.59558 23.8021 6.21855 24.7941 6.21855C25.7862 6.21855 26.7376 6.59558 27.4391 7.26669C28.1406 7.9378 28.5347 8.84801 28.5347 9.79711ZM1.36258 2.73126V9.22161H0.348209C0.302487 9.22174 0.257189 9.21323 0.214914 9.19656C0.17264 9.1799 0.134223 9.15541 0.101869 9.1245C0.0695142 9.0936 0.0438598 9.05688 0.0263783 9.01646C0.00889686 8.97604 -6.73554e-05 8.93272 3.81027e-07 8.88898V0.514165C3.81027e-07 0.230589 0.221028 0 0.524109 0H5.0098C5.31237 0 5.53391 0.230099 5.53391 0.513184V1.00478H12.4689C12.6627 1.00478 12.8176 1.15344 12.8176 1.33644V3.21942H6.89751V2.72635C6.89751 2.44327 6.67597 2.21317 6.37238 2.21317H1.88823C1.58463 2.21317 1.36309 2.44719 1.36309 2.73126H1.36258Z" fill="#575757"/>
<path d="M15.5402 13.1522C15.5402 13.1959 15.5312 13.2392 15.5137 13.2795C15.4961 13.3199 15.4704 13.3566 15.438 13.3874C15.4056 13.4182 15.3671 13.4426 15.3248 13.4591C15.2825 13.4757 15.2372 13.4841 15.1915 13.4838H3.07087C3.02517 13.484 2.97988 13.4756 2.93761 13.459C2.89534 13.4423 2.85692 13.4179 2.82456 13.387C2.79219 13.3562 2.76653 13.3195 2.74904 13.2791C2.73156 13.2387 2.72259 13.1954 2.72266 13.1517V4.77686C2.72266 4.49328 2.94368 4.2627 3.24676 4.2627H7.73143C8.03502 4.2627 8.25656 4.49279 8.25656 4.77588V5.26748H15.1915C15.3849 5.26748 15.5402 5.41613 15.5402 5.59913V13.1522ZM10.1638 8.38387V6.40865H8.0981V8.38387H6.03295V10.3601H8.0981V12.3358H10.1638V10.3601H12.2289V8.38387H10.1638ZM28.486 14.2982C28.9786 14.2979 29.4664 14.3903 29.9216 14.5704C30.3768 14.7504 30.7905 15.0145 31.139 15.3476C31.4874 15.6807 31.7639 16.0762 31.9525 16.5115C32.1412 16.9468 32.2383 17.4134 32.2384 17.8846L32.2461 31.0003H19.6593V20.1277H19.1495L16.8285 23.4409C16.4505 23.9339 15.6833 24.1729 15.0715 24.1729H9.62222C9.18766 24.173 8.77083 24.0081 8.46331 23.7143C8.15579 23.4206 7.98275 23.0221 7.9822 22.6063C7.9822 21.7428 8.71708 21.0609 9.62222 21.0609H14.5787L18.0172 16.087C18.8408 14.884 20.4521 14.3027 21.749 14.3027L28.4855 14.2987L28.486 14.2982Z" fill="#575757"/>
</svg>
