<svg width="28" height="31" viewBox="0 0 28 31" fill="none" xmlns="http://www.w3.org/2000/svg">
<path d="M26.655 6.71727C27.2329 8.9709 26.7706 11.2245 25.4415 13.0737C24.228 14.6917 23.5924 16.6564 23.3613 19.3145C23.1301 21.5104 22.7834 24.4574 22.1478 27.4045L21.6855 29.3692C21.5121 30.1782 20.8187 30.6983 19.9519 30.6983C19.1429 30.6983 18.4495 30.1782 18.2761 29.3692L16.2536 21.3948C16.0225 20.3547 15.0401 19.6034 14 19.6034C12.9021 19.6034 11.9197 20.3547 11.6886 21.3948L9.66608 29.3692C9.49273 30.1782 8.7993 30.6983 7.9903 30.6983C7.12352 30.6983 6.43009 30.1782 6.25673 29.3692L5.79445 27.4045C5.15881 24.4574 4.8121 21.5104 4.58095 19.3145C4.34981 16.6564 3.71417 14.6917 2.50067 13.0737C1.17161 11.2245 0.709321 8.9709 1.28718 6.71727C1.92282 4.05913 4.0031 1.97885 6.60345 1.28542C8.10587 0.880925 9.83944 1.34321 11.6308 2.61449C12.9599 3.48128 13.5955 3.42349 14 3.48128C14.7512 3.42349 15.5602 3.19235 16.1959 2.67228C18.045 1.34321 19.7786 0.880925 21.3388 1.28542C23.9391 1.97885 26.0194 4.05913 26.655 6.71727ZM23.1879 11.4557C24.0547 10.3 24.3436 8.79755 23.9969 7.35291C23.5924 5.73491 22.2633 4.40584 20.6453 3.94356C19.8941 3.7702 18.9696 4.11692 17.8716 4.92591C17.4671 5.21484 17.0048 5.44598 16.5426 5.67713L17.0048 5.96606C17.6405 6.37055 17.8716 7.23734 17.4671 7.87298C17.1782 8.27748 16.7159 8.50862 16.2536 8.50862C16.0225 8.50862 15.7914 8.45083 15.5602 8.33526C8.74151 4.11692 8.62594 3.88577 7.70137 3.88577C7.5858 3.88577 7.41245 3.94356 7.29687 3.94356C5.67888 4.40584 4.34981 5.73491 3.94531 7.35291C3.5986 8.79755 3.88753 10.3 4.75431 11.4557C6.25673 13.4782 7.06573 15.8474 7.35466 19.0256C7.52802 20.5858 7.70137 22.4927 8.04809 24.4574L8.97266 20.7014C9.55051 18.4477 11.6308 16.8297 14 16.8297C16.3114 16.8297 18.3917 18.4477 18.9696 20.7014L19.8941 24.4574C20.2408 22.4927 20.4142 20.5858 20.5876 19.0256C20.8765 15.8474 21.6855 13.4782 23.1879 11.4557Z" fill="#575757"/>
</svg>
