<svg width="37" height="30" viewBox="0 0 37 30" fill="none" xmlns="http://www.w3.org/2000/svg">
<path d="M27.4392 6.26347C28.0015 8.45642 27.5517 10.6494 26.2584 12.4487C25.0776 14.0231 24.4591 15.9349 24.2342 18.5215C24.0093 20.6582 23.6719 23.5259 23.0534 26.3936L22.6035 28.3054C22.4348 29.0926 21.7601 29.5987 20.9166 29.5987C20.1294 29.5987 19.4547 29.0926 19.286 28.3054L17.3179 20.5457C17.093 19.5336 16.1371 18.8026 15.125 18.8026C14.0566 18.8026 13.1007 19.5336 12.8758 20.5457L10.9078 28.3054C10.7391 29.0926 10.0644 29.5987 9.27714 29.5987C8.4337 29.5987 7.75894 29.0926 7.59026 28.3054L7.14042 26.3936C6.5219 23.5259 6.18452 20.6582 5.9596 18.5215C5.73469 15.9349 5.11616 14.0231 3.93534 12.4487C2.64207 10.6494 2.19223 8.45642 2.75453 6.26347C3.37305 3.67692 5.39731 1.65266 7.92763 0.977903C9.3896 0.584297 11.0765 1.03413 12.8196 2.27118C14.1129 3.11462 14.7314 3.05839 15.125 3.11462C15.856 3.05839 16.6432 2.83347 17.2617 2.32741C19.0611 1.03413 20.7479 0.584297 22.2661 0.977903C24.7965 1.65266 26.8207 3.67692 27.4392 6.26347ZM24.0655 10.8743C24.9089 9.74969 25.1901 8.28773 24.8527 6.88199C24.4591 5.30757 23.1658 4.01429 21.5914 3.56446C20.8604 3.39577 19.9607 3.73315 18.8924 4.52036C18.4988 4.8015 18.0489 5.02642 17.5991 5.25134L18.0489 5.53249C18.6675 5.92609 18.8924 6.76953 18.4988 7.38806C18.2176 7.78166 17.7678 8.00658 17.3179 8.00658C17.093 8.00658 16.8681 7.95035 16.6432 7.83789C10.0081 3.73315 9.89566 3.50823 8.99599 3.50823C8.88353 3.50823 8.71485 3.56446 8.60239 3.56446C7.02796 4.01429 5.73469 5.30757 5.34108 6.88199C5.0037 8.28773 5.28485 9.74969 6.12829 10.8743C7.59026 12.8423 8.37747 15.1477 8.65862 18.2403C8.8273 19.7585 8.99599 21.6141 9.33337 23.5259L10.233 19.871C10.7953 17.678 12.8196 16.1036 15.125 16.1036C17.3742 16.1036 19.3984 17.678 19.9607 19.871L20.8604 23.5259C21.1978 21.6141 21.3665 19.7585 21.5352 18.2403C21.8163 15.1477 22.6035 12.8423 24.0655 10.8743Z" fill="#575757"/>
<path d="M23.2294 10.8427H20.0327C19.7441 10.8427 19.4999 10.9709 19.3889 11.1722L18.7895 12.1426L17.1468 7.18113C17.058 6.92482 16.7694 6.74174 16.4586 6.76005C16.1256 6.76005 15.837 6.94313 15.7704 7.21775L14.2387 13.1129L13.5949 11.2821C13.5061 11.0258 13.2397 10.8427 12.9289 10.8427H9.73219C9.53239 10.8427 4.79506 10.8427 0 10.8427V12.0144C3.05463 12.0144 9.53239 12.0144 9.73219 12.0144H12.3739L13.6615 15.6943C13.7503 15.9506 14.0167 16.1154 14.3274 16.1154C14.3496 16.1154 14.3496 16.1154 14.3718 16.1154C14.6826 16.1154 14.9712 15.9323 15.0378 15.6577L16.5474 9.81746L17.9237 13.9367C17.9903 14.1564 18.2567 14.3395 18.5231 14.3578C18.8339 14.3944 19.1003 14.2663 19.2335 14.0466L20.4545 12.0144H23.2294C23.407 12.0144 36.7532 12.0144 36.0872 12.0144V10.8427H27.5627C27.5627 10.8427 23.407 10.8427 23.2294 10.8427Z" fill="#575757"/>
</svg>
