<svg width="36" height="37" viewBox="0 0 36 37" fill="none" xmlns="http://www.w3.org/2000/svg">
<path d="M34.054 32.7988L24.5702 23.669C24.2382 23.3494 23.7953 23.1709 23.3345 23.1709C22.8737 23.1709 22.4308 23.3494 22.0988 23.669L21.6778 24.0743C21.3595 24.3807 21.1797 24.8035 21.1797 25.2453C21.1797 25.6871 21.3595 26.1099 21.6778 26.4163L31.2901 35.6698C32.0617 36.4126 33.2824 36.4126 34.054 35.6698C34.8682 34.886 34.8682 33.5826 34.054 32.7988Z" fill="#FAFAF8"/>
<path fill-rule="evenodd" clip-rule="evenodd" d="M23.5272 20.0726C21.7726 16.514 18.0931 14.2509 13.9536 14.2509C9.83117 14.2509 6.1346 16.514 4.38001 20.0726C2.93204 18.1375 2.14844 15.8088 2.14844 13.431C2.14844 7.16651 7.44629 2.06641 13.9536 2.06641C20.4609 2.06641 25.7588 7.16651 25.7588 13.431C25.7588 15.8088 24.9752 18.1375 23.5272 20.0726ZM13.9516 0C6.26884 0 0 6.03485 0 13.4308C0 16.9074 1.39686 20.22 3.91803 22.7455C3.93506 22.7766 4.0032 22.8422 4.08838 22.9078C6.76285 25.4677 10.255 26.8764 13.9516 26.8764C17.7163 26.8764 21.2255 25.4677 23.8318 22.9078C23.917 22.8422 23.9681 22.7766 24.0022 22.7455C26.5233 20.22 27.9202 16.9074 27.9202 13.4308C27.9202 6.03485 21.6514 0 13.9516 0Z" fill="#FAFAF8"/>
<path fill-rule="evenodd" clip-rule="evenodd" d="M8.99219 8.7563C8.99219 11.3801 11.2238 13.5284 13.9494 13.5284C16.692 13.5284 18.9236 11.3801 18.9236 8.7563C18.9236 6.11605 16.692 3.96777 13.9494 3.96777C11.2238 3.96777 8.99219 6.11605 8.99219 8.7563Z" fill="#FAFAF8"/>
</svg>
