<svg width="16" height="24" viewBox="0 0 16 24" fill="none" xmlns="http://www.w3.org/2000/svg">
<path d="M13.1124 12.0463L11.1266 10.8884C11.0141 10.8416 10.8889 10.8357 10.7726 10.8716C10.6562 10.9076 10.5561 10.9832 10.4897 11.0852L7.8092 14.6052L5.12288 11.0679C5.05705 10.9636 4.956 10.8864 4.83808 10.8502C4.72016 10.8141 4.5932 10.8215 4.48025 10.871L2.49446 12.0289C2.01205 12.3 1.61627 12.7021 1.35295 13.1888C1.08963 13.6755 0.969534 14.2268 1.00657 14.7789V19.7057C1.00657 21.5236 2.12973 23 3.50183 23H12.1108C13.4887 23 14.606 21.5236 14.606 19.7057V14.7789C14.6392 14.2291 14.5166 13.681 14.2524 13.1977C13.9882 12.7143 13.5931 12.3153 13.1124 12.0463Z" stroke="#575757" stroke-width="1.70137" stroke-linecap="round" stroke-linejoin="round"/>
<path d="M7.94757 9.68421C10.3457 9.68421 12.2897 7.74018 12.2897 5.3421C12.2897 2.94403 10.3457 1 7.94757 1C5.5495 1 3.60547 2.94403 3.60547 5.3421C3.60547 7.74018 5.5495 9.68421 7.94757 9.68421Z" stroke="#575757" stroke-width="1.70137" stroke-miterlimit="10"/>
</svg>
