<svg width="35" height="36" viewBox="0 0 35 36" fill="none" xmlns="http://www.w3.org/2000/svg">
<ellipse cx="17.5" cy="18.2469" rx="17.5" ry="17.576" fill="#FAFAF8"/>
<path d="M20.8369 17.5355L15.7577 16.0646C15.1698 15.897 14.7607 15.3524 14.7607 14.7472C14.7607 13.9885 15.3815 13.374 16.148 13.374H19.2661C19.8399 13.374 20.4042 13.5463 20.8745 13.8628C21.1614 14.0536 21.5471 14.0071 21.7916 13.7697L23.4283 12.187C23.7622 11.8658 23.7151 11.3305 23.3436 11.0465C22.1914 10.1528 20.7523 9.65472 19.2755 9.65007V7.41569C19.2755 7.00605 18.9369 6.6709 18.5231 6.6709H17.0181C16.6042 6.6709 16.2656 7.00605 16.2656 7.41569V9.65007H16.148C13.1523 9.65007 10.7443 12.1963 11.0218 15.2174C11.2193 17.3633 12.8748 19.1089 14.9629 19.7141L19.7834 21.1105C20.3713 21.2828 20.7805 21.8228 20.7805 22.4279C20.7805 23.1867 20.1597 23.8011 19.3931 23.8011H16.275C15.7013 23.8011 15.1369 23.6289 14.6666 23.3123C14.3797 23.1215 13.9941 23.168 13.7495 23.4054L12.1129 24.9881C11.779 25.3093 11.826 25.8446 12.1975 26.1286C13.3498 27.0223 14.7889 27.5204 16.2656 27.5251V29.7594C16.2656 30.1691 16.6042 30.5042 17.0181 30.5042H18.5231C18.9369 30.5042 19.2755 30.1691 19.2755 29.7594V27.5158C21.4671 27.4739 23.5223 26.1844 24.2466 24.1316C25.2577 21.2642 23.5599 18.3222 20.8369 17.5355Z" fill="#405464"/>
</svg>
