<svg width="35" height="37" viewBox="0 0 35 37" fill="none" xmlns="http://www.w3.org/2000/svg">
<path d="M12.7656 35.6077C12.7681 34.626 13.1726 33.6852 13.8906 32.991C14.6086 32.2968 15.5816 31.9057 16.597 31.9033H21.1721C22.1875 31.9057 23.1606 32.2968 23.8786 32.991C24.5966 33.6852 25.001 34.626 25.0035 35.6077H12.7656Z" stroke="#FAFAF8" stroke-width="1.5" stroke-miterlimit="10"/>
<path d="M32.2174 31.4466C31.9654 31.444 31.7172 31.3871 31.4908 31.2801C31.2644 31.173 31.0656 31.0185 30.9089 30.8277L25.3547 24.1652H11.4035C11.1729 24.1634 10.9452 24.1155 10.7346 24.0247C10.5241 23.9339 10.3351 23.802 10.1797 23.6373L1.5096 14.5356C1.18146 14.1816 1 13.723 1 13.2477C1 12.7723 1.18146 12.3137 1.5096 11.9598C1.66327 11.7927 1.85177 11.6591 2.0627 11.5676C2.27362 11.476 2.5022 11.4287 2.7334 11.4287C2.96459 11.4287 3.19317 11.476 3.40409 11.5676C3.61502 11.6591 3.80352 11.7927 3.95719 11.9598L12.1284 20.5245H26.1455C26.3975 20.5271 26.6457 20.584 26.872 20.6911C27.0984 20.7982 27.2972 20.9527 27.454 21.1434L33.5165 28.4249C33.8214 28.7984 33.9736 29.2673 33.9441 29.7422C33.9146 30.2172 33.7054 30.6651 33.3564 31.0007C33.0505 31.2858 32.6423 31.4456 32.2174 31.4466Z" stroke="#FAFAF8" stroke-width="1.5" stroke-miterlimit="10"/>
<path d="M20.2969 24.6221V31.9035" stroke="#FAFAF8" stroke-width="1.5" stroke-miterlimit="10"/>
<path d="M17.4727 31.9035V24.6221" stroke="#FAFAF8" stroke-width="1.5" stroke-miterlimit="10"/>
<path d="M21.034 6.99145C20.3238 7.50367 19.436 7.72999 18.5569 7.62291C17.6778 7.51583 16.8758 7.08367 16.3192 6.41714C15.7625 5.7506 15.4946 4.90151 15.5716 4.04806C15.6485 3.19462 16.0644 2.40318 16.732 1.83984L21.034 6.99145Z" stroke="#FAFAF8" stroke-width="1.5" stroke-miterlimit="10"/>
<path d="M18.3438 3.93328C18.7398 3.43259 19.2499 3.02682 19.8343 2.74744C20.4188 2.46807 21.0619 2.32258 21.7139 2.32227V2.32227C22.8374 2.32227 23.9149 2.75379 24.7093 3.5219C25.5038 4.29001 25.9501 5.33179 25.9501 6.41806V20.5258" stroke="#FAFAF8" stroke-width="1.5" stroke-miterlimit="10"/>
<path d="M25.9489 12.334H15.5938V15.5196H25.9489" stroke="#FAFAF8" stroke-width="1.5" stroke-miterlimit="10"/>
</svg>
