<svg width="24" height="25" viewBox="0 0 24 25" fill="none" xmlns="http://www.w3.org/2000/svg">
<path d="M8.91797 23.6219C8.91964 22.9642 9.19178 22.334 9.67486 21.8689C10.158 21.4038 10.8127 21.1419 11.4959 21.1403H14.5741C15.2573 21.1419 15.9121 21.4038 16.3951 21.8689C16.8782 22.334 17.1504 22.9642 17.152 23.6219H8.91797Z" stroke="#575757" stroke-width="1.3" stroke-miterlimit="10"/>
<path d="M22.0041 20.8345C21.8345 20.8328 21.6675 20.7947 21.5152 20.7229C21.3629 20.6512 21.2292 20.5477 21.1237 20.4199L17.3867 15.9566H7.99981C7.84467 15.9553 7.69147 15.9233 7.54979 15.8624C7.4081 15.8016 7.28099 15.7132 7.17641 15.6029L1.34288 9.50542C1.1221 9.26829 1 8.96106 1 8.64262C1 8.32419 1.1221 8.01696 1.34288 7.77983C1.44627 7.66795 1.5731 7.57841 1.71502 7.51709C1.85694 7.45577 2.01073 7.42407 2.16629 7.42407C2.32184 7.42407 2.47564 7.45577 2.61755 7.51709C2.75947 7.57841 2.8863 7.66795 2.98969 7.77983L8.48752 13.5176H17.9187C18.0883 13.5193 18.2553 13.5574 18.4076 13.6292C18.5599 13.7009 18.6936 13.8044 18.7991 13.9322L22.8782 18.8102C23.0833 19.0604 23.1857 19.3745 23.1659 19.6927C23.146 20.0109 23.0053 20.311 22.7705 20.5358C22.5646 20.7268 22.29 20.8338 22.0041 20.8345Z" stroke="#575757" stroke-width="1.3" stroke-miterlimit="10"/>
<path d="M13.9844 16.2623V21.1403" stroke="#575757" stroke-width="1.3" stroke-miterlimit="10"/>
<path d="M12.082 21.1403V16.2623" stroke="#575757" stroke-width="1.3" stroke-miterlimit="10"/>
<path d="M14.4809 4.45117C14.0031 4.79433 13.4057 4.94594 12.8142 4.87421C12.2227 4.80247 11.6831 4.51296 11.3086 4.06643C10.9341 3.6199 10.7538 3.05108 10.8056 2.47934C10.8574 1.90759 11.1372 1.37739 11.5864 1L14.4809 4.45117Z" stroke="#575757" stroke-width="1.3" stroke-miterlimit="10"/>
<path d="M12.668 2.4025C12.9345 2.06707 13.2777 1.79524 13.6709 1.60808C14.0641 1.42092 14.4968 1.32345 14.9355 1.32324V1.32324C15.6914 1.32324 16.4164 1.61233 16.9509 2.1269C17.4855 2.64148 17.7858 3.33939 17.7858 4.06711V13.5182" stroke="#575757" stroke-width="1.3" stroke-miterlimit="10"/>
<path d="M17.7876 8.03064H10.8203V10.1648H17.7876" stroke="#575757" stroke-width="1.3" stroke-miterlimit="10"/>
</svg>
