<svg width="29" height="34" viewBox="0 0 29 34" fill="none" xmlns="http://www.w3.org/2000/svg">
<path d="M25.5105 4.97716C27.137 4.97716 28.5133 6.35347 28.5133 7.98002V30.001C28.5133 31.6901 27.137 33.0038 25.5105 33.0038H3.48953C1.80043 33.0038 0.486677 31.6901 0.486677 30.001V7.98002C0.486677 6.35347 1.80043 4.97716 3.48953 4.97716H6.49239V1.72407C6.49239 1.34871 6.80518 0.973354 7.2431 0.973354H9.74548C10.1208 0.973354 10.4962 1.34871 10.4962 1.72407V4.97716H18.5038V1.72407C18.5038 1.34871 18.8166 0.973354 19.2545 0.973354H21.7569C22.1323 0.973354 22.5076 1.34871 22.5076 1.72407V4.97716H25.5105ZM25.1351 30.001C25.3228 30.001 25.5105 29.8758 25.5105 29.6256V10.9829H3.48953V29.6256C3.48953 29.8758 3.61465 30.001 3.86489 30.001H25.1351Z" fill="#FAFAF8"/>
<line x1="11.0664" y1="14.7942" x2="22.1379" y2="14.7942" stroke="#FAFAF8" stroke-width="1.60152"/>
<line x1="11.0664" y1="20.4699" x2="22.1379" y2="20.4699" stroke="#FAFAF8" stroke-width="1.60152"/>
<line x1="5.53906" y1="20.4699" x2="7.91152" y2="20.4699" stroke="#FAFAF8" stroke-width="1.60152"/>
<line x1="5.53906" y1="14.7942" x2="7.91152" y2="14.7942" stroke="#FAFAF8" stroke-width="1.60152"/>
<line x1="5.53906" y1="26.1458" x2="7.91152" y2="26.1458" stroke="#FAFAF8" stroke-width="1.60152"/>
<line x1="11.0664" y1="26.1458" x2="22.1379" y2="26.1458" stroke="#FAFAF8" stroke-width="1.60152"/>
</svg>
