<svg width="29" height="34" viewBox="0 0 29 34" fill="none" xmlns="http://www.w3.org/2000/svg">
<path d="M9.68561 18.8645H7.15173C6.7083 18.8645 6.39156 18.5477 6.39156 18.1043V15.5704C6.39156 15.1903 6.7083 14.8102 7.15173 14.8102H9.68561C10.0657 14.8102 10.4458 15.1903 10.4458 15.5704V18.1043C10.4458 18.5477 10.0657 18.8645 9.68561 18.8645ZM16.5271 18.1043C16.5271 18.5477 16.147 18.8645 15.7669 18.8645H13.2331C12.7896 18.8645 12.4729 18.5477 12.4729 18.1043V15.5704C12.4729 15.1903 12.7896 14.8102 13.2331 14.8102H15.7669C16.147 14.8102 16.5271 15.1903 16.5271 15.5704V18.1043ZM22.6084 18.1043C22.6084 18.5477 22.2284 18.8645 21.8483 18.8645H19.3144C18.871 18.8645 18.5542 18.5477 18.5542 18.1043V15.5704C18.5542 15.1903 18.871 14.8102 19.3144 14.8102H21.8483C22.2284 14.8102 22.6084 15.1903 22.6084 15.5704V18.1043ZM16.5271 24.1856C16.5271 24.629 16.147 24.9458 15.7669 24.9458H13.2331C12.7896 24.9458 12.4729 24.629 12.4729 24.1856V21.6517C12.4729 21.2716 12.7896 20.8916 13.2331 20.8916H15.7669C16.147 20.8916 16.5271 21.2716 16.5271 21.6517V24.1856ZM10.4458 24.1856C10.4458 24.629 10.0657 24.9458 9.68561 24.9458H7.15173C6.7083 24.9458 6.39156 24.629 6.39156 24.1856V21.6517C6.39156 21.2716 6.7083 20.8916 7.15173 20.8916H9.68561C10.0657 20.8916 10.4458 21.2716 10.4458 21.6517V24.1856ZM22.6084 24.1856C22.6084 24.629 22.2284 24.9458 21.8483 24.9458H19.3144C18.871 24.9458 18.5542 24.629 18.5542 24.1856V21.6517C18.5542 21.2716 18.871 20.8916 19.3144 20.8916H21.8483C22.2284 20.8916 22.6084 21.2716 22.6084 21.6517V24.1856ZM28.6898 7.71535V30.0136C28.6898 31.7239 27.2961 33.0542 25.6491 33.0542H3.3509C1.64052 33.0542 0.310234 31.7239 0.310234 30.0136V7.71535C0.310234 6.06833 1.64052 4.67469 3.3509 4.67469H6.39156V1.38063C6.39156 1.00055 6.7083 0.620469 7.15173 0.620469H9.68561C10.0657 0.620469 10.4458 1.00055 10.4458 1.38063V4.67469H18.5542V1.38063C18.5542 1.00055 18.871 0.620469 19.3144 0.620469H21.8483C22.2284 0.620469 22.6084 1.00055 22.6084 1.38063V4.67469H25.6491C27.2961 4.67469 28.6898 6.06833 28.6898 7.71535ZM25.6491 29.6335V10.756H3.3509V29.6335C3.3509 29.8869 3.47759 30.0136 3.73098 30.0136H25.269C25.4591 30.0136 25.6491 29.8869 25.6491 29.6335Z" fill="#FAFAF8"/>
</svg>
