<svg width="28" height="32" viewBox="0 0 28 32" fill="none" xmlns="http://www.w3.org/2000/svg">
<path d="M7 19C6.4375 19 6 18.5625 6 18V14C6 13.5 6.4375 13 7 13H21C21.5 13 22 13.5 22 14V18C22 18.5625 21.5 19 21 19H7ZM25 4C26.625 4 28 5.375 28 7V29C28 30.6875 26.625 32 25 32H3C1.3125 32 0 30.6875 0 29V7C0 5.375 1.3125 4 3 4H6V1C6 0.5 6.4375 0 7 0H9C9.5 0 10 0.5 10 1V4H18V1C18 0.5 18.4375 0 19 0H21C21.5 0 22 0.5 22 1V4H25ZM25 28.625V10H3V28.625C3 28.875 3.125 29 3.375 29H24.625C24.8125 29 25 28.875 25 28.625Z" fill="#FAFAF8"/>
</svg>
