<svg width="33" height="32" viewBox="0 0 33 32" fill="none" xmlns="http://www.w3.org/2000/svg">
<path d="M32.0917 10.7337C32.3118 11.2564 32.1251 11.8459 31.6716 12.2288L28.7838 14.6233C28.8572 15.1278 28.8972 15.6444 28.8972 16.1671C28.8972 16.6897 28.8572 17.2063 28.7838 17.7108L31.6716 20.1053C32.1251 20.4882 32.3118 21.0778 32.0917 21.6004C31.7983 22.3237 31.4448 23.0226 31.0447 23.685L30.7312 24.1773C30.291 24.8459 29.7975 25.4779 29.2573 26.0796C28.8572 26.5111 28.2103 26.6631 27.6234 26.4929L23.9087 25.4111C23.015 26.0371 21.968 26.5597 20.9743 26.9609L20.1406 30.4312C20.0073 30.9782 19.5404 31.3671 18.9269 31.513C18.0065 31.6528 17.0595 31.7257 16.0325 31.7257C15.1255 31.7257 14.1784 31.6528 13.2581 31.513C12.6445 31.3671 12.1777 30.9782 12.0443 30.4312L11.2107 26.9609C10.157 26.5597 9.16992 26.0371 8.27626 25.4111L4.56422 26.4929C3.97467 26.6631 3.32443 26.5111 2.92962 26.0796C2.38875 25.4779 1.89524 24.8459 1.45508 24.1773L1.14296 23.685C0.738144 23.0226 0.386014 22.3237 0.090572 21.6004C-0.125508 21.0778 0.0565595 20.4882 0.514062 20.1053L3.39913 17.7108C3.32577 17.2063 3.28775 16.6897 3.28775 16.1671C3.28775 15.6444 3.32577 15.1278 3.39913 14.6233L0.514062 12.2288C0.0565595 11.8459 -0.125508 11.2624 0.090572 10.7337C0.386014 10.0104 0.738811 9.31152 1.14296 8.64906L1.45441 8.15678C1.89524 7.48824 2.38875 6.85617 2.92962 6.25753C3.32443 5.82298 3.97467 5.67225 4.56422 5.84364L8.27626 6.92302C9.16992 6.2946 10.157 5.77193 11.2107 5.37506L12.0443 1.90475C12.1777 1.3529 12.6445 0.914709 13.2581 0.821722C14.1784 0.68139 15.1255 0.608398 16.0925 0.608398C17.0595 0.608398 18.0065 0.68139 18.9269 0.821722C19.5404 0.914709 20.0073 1.3529 20.1406 1.90475L20.9743 5.37506C21.968 5.77193 23.015 6.2946 23.9087 6.92302L27.6234 5.84364C28.2103 5.67225 28.8572 5.82298 29.2573 6.25753C29.7975 6.85617 30.291 7.48824 30.7312 8.15678L31.0447 8.64906C31.4448 9.31152 31.7983 10.0104 32.0917 10.7337ZM16.0925 21.0291C19.0402 21.0291 21.4278 18.8533 21.4278 16.1124C21.4278 13.4808 19.0402 11.2503 16.0925 11.2503C13.1447 11.2503 10.7572 13.4808 10.7572 16.1124C10.7572 18.8533 13.1447 21.0291 16.0925 21.0291Z" fill="#FAFAF8"/>
</svg>
