<svg width="31" height="25" viewBox="0 0 31 25" fill="none" xmlns="http://www.w3.org/2000/svg">
<path d="M7.10006 0.829214C6.81793 0.563393 6.43533 0.414062 6.0364 0.414062C5.63746 0.414062 5.25486 0.563393 4.97273 0.829214L3.02744 2.6626L2.58663 2.24715C2.30288 1.98886 1.92285 1.84594 1.52838 1.84917C1.13391 1.8524 0.756568 2.00152 0.477626 2.26442C0.198684 2.52732 0.0404593 2.88295 0.0370315 3.25473C0.0336036 3.62651 0.185246 3.98468 0.459299 4.25211L1.96378 5.67004C2.24591 5.93586 2.62851 6.08519 3.02744 6.08519C3.42638 6.08519 3.80898 5.93586 4.09111 5.67004L7.10006 2.83417C7.38211 2.56827 7.54055 2.20768 7.54055 1.83169C7.54055 1.45571 7.38211 1.09512 7.10006 0.829214ZM28.6081 20.2549H12.0543L11.8783 20.2648C11.4975 20.3075 11.1484 20.4856 10.9023 20.7628C10.6562 21.0399 10.5316 21.3952 10.5541 21.7559C10.5766 22.1167 10.7444 22.4558 11.0232 22.7039C11.302 22.952 11.6708 23.0904 12.0543 23.0908H28.6081L28.7841 23.0823C29.1676 23.0426 29.5203 22.8656 29.7693 22.5878C30.0182 22.31 30.1445 21.9527 30.1219 21.5897C30.0993 21.2267 29.9296 20.8858 29.6478 20.6374C29.3661 20.389 28.9939 20.252 28.6081 20.2549ZM28.6081 11.7572H12.0543L11.8783 11.7672C11.4975 11.8098 11.1484 11.9879 10.9023 12.2651C10.6562 12.5422 10.5316 12.8975 10.5541 13.2583C10.5766 13.619 10.7444 13.9581 11.0232 14.2062C11.302 14.4543 11.6708 14.5927 12.0543 14.5931H28.6081L28.7841 14.5832C29.1649 14.5405 29.514 14.3624 29.7601 14.0852C30.0062 13.8081 30.1308 13.4528 30.1083 13.0921C30.0858 12.7313 29.918 12.3922 29.6392 12.1441C29.3604 11.896 28.9915 11.7576 28.6081 11.7572ZM28.6081 3.24963H12.0543L11.8783 3.25955C11.4975 3.30224 11.1484 3.48035 10.9023 3.75749C10.6562 4.03463 10.5316 4.38988 10.5541 4.75066C10.5766 5.11144 10.7444 5.45052 11.0232 5.69862C11.302 5.94671 11.6708 6.08509 12.0543 6.0855H28.6081L28.7841 6.07557C29.1649 6.03289 29.514 5.85478 29.7601 5.57764C30.0062 5.3005 30.1308 4.94524 30.1083 4.58446C30.0858 4.22368 29.918 3.8846 29.6392 3.63651C29.3604 3.38841 28.9915 3.25003 28.6081 3.24963ZM7.10006 19.2624C6.81793 18.9965 6.43533 18.8472 6.0364 18.8472C5.63746 18.8472 5.25486 18.9965 4.97273 19.2624L3.02744 21.0957L2.58663 20.6803C2.30288 20.422 1.92285 20.2791 1.52838 20.2823C1.13391 20.2855 0.756568 20.4347 0.477626 20.6976C0.198684 20.9605 0.0404593 21.3161 0.0370315 21.6879C0.0336036 22.0597 0.185246 22.4178 0.459299 22.6852L1.96378 24.1032C2.24591 24.369 2.62851 24.5183 3.02744 24.5183C3.42638 24.5183 3.80898 24.369 4.09111 24.1032L7.10006 21.2673C7.38211 21.0014 7.54055 20.6408 7.54055 20.2648C7.54055 19.8888 7.38211 19.5283 7.10006 19.2624ZM4.97273 10.0458C5.25648 9.7875 5.63651 9.64458 6.03098 9.64781C6.42545 9.65104 6.80279 9.80016 7.08174 10.0631C7.36068 10.326 7.5189 10.6816 7.52233 11.0534C7.52576 11.4251 7.37411 11.7833 7.10006 12.0507L4.09111 14.8866C3.80898 15.1524 3.42638 15.3018 3.02744 15.3018C2.62851 15.3018 2.24591 15.1524 1.96378 14.8866L0.459299 13.4687C0.315606 13.3379 0.200992 13.1814 0.122144 13.0084C0.0432956 12.8354 0.00179269 12.6494 5.68041e-05 12.4611C-0.00167909 12.2728 0.0363868 12.0861 0.112033 11.9119C0.18768 11.7376 0.299392 11.5793 0.440651 11.4461C0.581911 11.313 0.749888 11.2077 0.934783 11.1364C1.11968 11.0651 1.31779 11.0293 1.51755 11.0309C1.71731 11.0325 1.91473 11.0716 2.09828 11.146C2.28184 11.2203 2.44785 11.3283 2.58663 11.4637L3.02744 11.8792L4.97273 10.0458Z" fill="#FAFAF8"/>
</svg>
