<svg width="24" height="28" viewBox="0 0 24 28" fill="none" xmlns="http://www.w3.org/2000/svg">
<path fill-rule="evenodd" clip-rule="evenodd" d="M0.017043 5.48346C0.254372 4.00679 0.996821 2.66431 2.112 1.69542C3.22719 0.726529 4.64261 0.194202 6.10588 0.193359C8.68111 0.193359 10.8886 1.80389 11.8121 4.09936C12.2784 2.94372 13.0695 1.95562 14.0854 1.26026C15.1012 0.564902 16.296 0.193586 17.5184 0.193359C20.5846 0.193359 23.132 2.47746 23.6082 5.48346C23.7434 6.33989 23.0413 6.97652 22.2983 6.97652H20.316C21.1564 8.05233 21.6304 9.37931 21.666 10.7558C21.7016 12.1323 21.2969 13.4831 20.5133 14.6028C20.0177 15.3086 19.0802 15.2499 18.555 14.7127L16.7412 12.8578C16.5241 13.3123 16.1783 13.6894 15.7487 13.9401C15.3192 14.1909 14.8258 14.3036 14.3327 14.2637V27.1934H9.2925V12.5868C8.6976 12.6356 8.10566 12.4615 7.62694 12.097L5.06838 14.7127C4.54315 15.2508 3.60569 15.3077 3.1101 14.6047C2.32239 13.4863 1.91505 12.1346 1.95052 10.7568C1.98599 9.37891 2.46232 8.05097 3.30648 6.97652H1.32596C0.583038 6.97652 -0.119129 6.33989 0.017043 5.48346ZM14.4828 9.23125H14.5263C15.1798 9.23125 15.8066 9.49675 16.2687 9.96935C16.7308 10.4419 16.9904 11.0829 16.9904 11.7513V11.773L19.2099 14.0429C19.4081 14.2457 19.6601 14.1945 19.7611 14.0505C20.4841 13.0167 20.8255 11.7543 20.7246 10.4875C20.6237 9.22068 20.087 8.03142 19.2099 7.13094C17.3813 5.26083 14.5643 5.33757 12.4995 7.1641L14.4948 9.21989L14.4828 9.23125ZM11.4851 6.81073L10.3921 7.92957C9.9199 7.63127 9.36309 7.50472 8.81183 7.57042C8.26057 7.63612 7.74713 7.89022 7.35469 8.29157C6.96226 8.69292 6.71379 9.218 6.64955 9.78178C6.58531 10.3456 6.70905 10.915 7.00073 11.3979L4.41438 14.0429C4.21615 14.2457 3.96418 14.1945 3.86229 14.0505C3.13535 13.0184 2.79157 11.7552 2.89257 10.4874C2.99357 9.21964 3.53274 8.03006 4.41346 7.13189C5.3409 6.18643 6.58024 5.62938 7.88845 5.56997C9.19667 5.51056 10.4794 5.95307 11.4851 6.81073ZM22.2983 6.02915H19.3942C17.3072 4.31631 14.4587 4.47168 12.2883 6.12389C12.3827 4.77097 12.9746 3.50483 13.945 2.58027C14.9154 1.65571 16.1922 1.14136 17.5184 1.14073C18.7622 1.13998 19.9658 1.59165 20.9139 2.415C21.862 3.23834 22.4929 4.3797 22.6939 5.63504C22.7217 5.81125 22.579 6.02915 22.2983 6.02915ZM4.22819 6.02915C5.20655 5.21837 6.40356 4.73226 7.65927 4.63576C8.91497 4.53927 10.1696 4.83699 11.2554 5.48915C11.0253 4.26507 10.3853 3.16125 9.44548 2.36761C8.50563 1.57397 7.32471 1.14013 6.10588 1.14073C4.86258 1.14154 3.65994 1.59379 2.71227 2.41688C1.76461 3.23997 1.13347 4.38043 0.931342 5.63504C0.903552 5.81125 1.04528 6.02915 1.32596 6.02915H4.22819ZM9.09797 8.50178C8.69014 8.50178 8.29901 8.66747 8.01063 8.96239C7.72225 9.25732 7.56024 9.65732 7.56024 10.0744C7.56024 10.4915 7.72225 10.8915 8.01063 11.1864C8.29901 11.4814 8.69014 11.647 9.09797 11.647C9.5058 11.647 9.89692 11.4814 10.1853 11.1864C10.4737 10.8915 10.6357 10.4915 10.6357 10.0744C10.6357 9.65732 10.4737 9.25732 10.1853 8.96239C9.89692 8.66747 9.5058 8.50178 9.09797 8.50178ZM12.9886 11.7513C12.9886 11.5447 13.0284 11.3402 13.1056 11.1494C13.1829 10.9586 13.2962 10.7853 13.439 10.6392C13.5818 10.4932 13.7513 10.3774 13.9379 10.2983C14.1244 10.2193 14.3244 10.1786 14.5263 10.1786C14.7283 10.1786 14.9282 10.2193 15.1148 10.2983C15.3014 10.3774 15.4709 10.4932 15.6137 10.6392C15.7565 10.7853 15.8697 10.9586 15.947 11.1494C16.0243 11.3402 16.0641 11.5447 16.0641 11.7513C16.0641 12.1683 15.902 12.5683 15.6137 12.8633C15.3253 13.1582 14.9342 13.3239 14.5263 13.3239C14.1185 13.3239 13.7274 13.1582 13.439 12.8633C13.1506 12.5683 12.9886 12.1683 12.9886 11.7513Z" fill="#545454"/>
</svg>
