<svg width="34" height="30" viewBox="0 0 34 30" fill="none" xmlns="http://www.w3.org/2000/svg">
<path d="M0.968825 10.165L2.77854 8.35526C3.34408 7.78972 4.24894 7.78972 4.81447 8.35526L6.34142 9.88221L2.49577 13.7279L0.968825 12.2009C0.403288 11.6354 0.403288 10.7305 0.968825 10.165ZM14.4851 17.9694C14.9376 18.4218 15.2769 18.9308 15.4466 19.5529L16.2949 22.3806H17.7087C17.9349 22.3806 18.1611 22.2675 18.2742 22.0412C18.9529 20.684 20.8757 20.3446 22.0068 21.2495L22.7985 18.8742C22.9682 18.3087 23.4772 17.9694 24.0993 17.9694C24.6648 17.9694 25.1738 18.3087 25.3435 18.8742L26.3614 21.9847C26.4745 22.2109 26.7007 22.3806 26.9835 22.3806H27.6622C28.1711 22.3806 28.567 22.833 28.567 23.2854C28.567 23.7944 28.1711 24.1903 27.6622 24.1903H26.9835C25.909 24.1903 25.0041 23.5682 24.6648 22.5502L24.0427 20.7405L23.1379 23.6247C23.0248 23.9641 22.6854 24.1903 22.3461 24.1903C22.2896 24.1903 22.2896 24.1903 22.2896 24.1903C21.8937 24.1903 21.6109 24.0206 21.4412 23.7379L21.0454 22.833C20.8757 22.5502 20.5929 22.4937 20.4798 22.4937C20.3102 22.4937 20.0274 22.5502 19.8577 22.8895C19.4619 23.6813 18.6136 24.1903 17.7087 24.1903H14.0893V26.9049H30.4333V3.43509H21.3847V9.31667C21.3847 10.0519 20.7626 10.674 20.0274 10.674H14.0893V15.0851L11.3747 12.3706V8.12904C11.3747 7.4504 11.714 6.7152 12.223 6.20622L16.9735 1.51227C17.4825 1.00328 18.1611 0.663961 18.8398 0.663961H30.4333C31.9037 0.720515 33.0913 1.90814 33.0913 3.43509V26.9614C33.0913 28.4318 31.9037 29.6194 30.4333 29.6194H14.1458C12.6189 29.6194 11.3747 28.4318 11.3747 26.9614V22.6633L3.79651 15.0286L7.64216 11.1829L14.4851 17.9694ZM18.6701 3.60475L14.3155 7.95938H18.6701V3.60475Z" fill="#3D5567"/>
</svg>
