<svg width="36" height="23" viewBox="0 0 36 23" fill="none" xmlns="http://www.w3.org/2000/svg">
<path d="M24.2744 0.527522H19.4654C19.0181 0.527522 18.6267 0.695276 18.2912 1.03078L12.7553 6.0634C11.8606 6.95808 11.8606 8.35603 12.6435 9.1948C13.3704 9.97765 14.8243 10.2013 15.7749 9.36255C15.7749 9.36255 15.7749 9.36255 15.8308 9.36255L20.2483 5.28054C20.6397 4.94504 21.1989 4.94504 21.5344 5.33646C21.8699 5.67197 21.8699 6.23115 21.4785 6.56666L20.0246 7.90869L28.1886 14.507C28.3005 14.6748 28.4682 14.7866 28.5801 14.9543V4.10627L25.5605 1.0867C25.225 0.751194 24.7776 0.527522 24.2744 0.527522ZM30.4254 4.16219V16.6878C30.4254 17.6384 31.2082 18.4772 32.2147 18.4772H35.7935V4.16219H30.4254ZM33.1094 16.6878C32.6062 16.6878 32.2147 16.2405 32.2147 15.7931C32.2147 15.2899 32.6062 14.8984 33.1094 14.8984C33.5568 14.8984 34.0041 15.2899 34.0041 15.7931C34.0041 16.2405 33.5568 16.6878 33.1094 16.6878ZM0.00601387 18.4213H3.58476C4.53536 18.4213 5.37413 17.6384 5.37413 16.6319V4.16219H0.00601387V18.4213ZM2.69007 14.8984C3.13742 14.8984 3.58476 15.2899 3.58476 15.7931C3.58476 16.2405 3.13742 16.6878 2.69007 16.6878C2.18681 16.6878 1.79539 16.2405 1.79539 15.7931C1.79539 15.2899 2.18681 14.8984 2.69007 14.8984ZM27.0144 15.9049L18.6826 9.13888L17.0051 10.6487C15.3275 12.2144 12.8112 12.0466 11.3014 10.425C9.84757 8.80337 9.9594 6.23115 11.581 4.72137L16.1663 0.527522H11.4692C10.9659 0.527522 10.5186 0.751194 10.1831 1.0867L7.16351 4.10627V16.6319H8.17003L13.2026 21.2171C14.7683 22.5033 17.0051 22.2237 18.2353 20.7139H18.2912L19.2418 21.5527C20.1365 22.2796 21.4785 22.1678 22.2054 21.2731L23.9389 19.0923L24.2744 19.3719C25.0013 19.987 26.1197 19.8751 26.7907 19.0923L27.294 18.4213C27.9091 17.6384 27.7972 16.52 27.0144 15.9049Z" fill="#3D5567"/>
</svg>
