<svg width="27" height="31" viewBox="0 0 27 31" fill="none" xmlns="http://www.w3.org/2000/svg">
<path d="M23.7854 11.874H21.8826V9.1387C21.8826 4.38162 18.0769 0.516491 13.3198 0.457028C8.56275 0.457028 4.75708 4.32216 4.75708 9.01977V11.874H2.85425C1.24873 11.874 0 13.1822 0 14.7283V28.0481C0 29.6536 1.24873 30.9023 2.85425 30.9023H23.7854C25.3315 30.9023 26.6397 29.6536 26.6397 28.0481V14.7283C26.6397 13.1822 25.3315 11.874 23.7854 11.874ZM7.61133 9.01977C7.61133 5.92767 10.1683 3.31128 13.3198 3.31128C16.4119 3.31128 19.0283 5.92767 19.0283 9.01977V11.874H7.61133V9.01977ZM23.7854 28.0481H2.85425V14.7283H23.7854V28.0481Z" fill="#3D5567"/>
</svg>
