<svg width="30" height="25" viewBox="0 0 30 25" fill="none" xmlns="http://www.w3.org/2000/svg">
<path d="M26.0086 2.92294C22.9682 0.354329 18.3028 0.721273 15.4197 3.70924C12.4841 0.721273 7.81868 0.354329 4.77829 2.92294C0.846748 6.22543 1.42337 11.6247 4.25408 14.5079L13.4277 23.8911C13.9519 24.4154 14.6333 24.7299 15.4197 24.7299C16.1535 24.7299 16.835 24.4154 17.3592 23.8911L26.5852 14.5079C29.3635 11.6247 29.9401 6.22543 26.0086 2.92294ZM24.7505 12.7256L15.5769 22.1089C15.4721 22.2137 15.3672 22.2137 15.21 22.1089L6.03638 12.7256C4.09682 10.786 3.72988 7.11658 6.40332 4.8625C8.44773 3.13262 11.593 3.39472 13.5849 5.3867L15.4197 7.27384L17.2544 5.3867C19.1939 3.39472 22.3392 3.13262 24.3836 4.81007C27.057 7.11658 26.6901 10.786 24.7505 12.7256Z" fill="#3D5567"/>
</svg>
