<svg width="24" height="28" viewBox="0 0 24 28" fill="none" xmlns="http://www.w3.org/2000/svg">
<path d="M16.7115 15.5299C15.1763 15.5299 14.4881 16.3769 12 16.3769C9.45897 16.3769 8.77077 15.5299 7.23556 15.5299C3.31813 15.5299 0.141842 18.7591 0.141842 22.6765V24.847C0.141842 26.2763 1.25354 27.388 2.68288 27.388H21.3171C22.6935 27.388 23.8582 26.2763 23.8582 24.847V22.6765C23.8582 18.7591 20.6289 15.5299 16.7115 15.5299ZM22.1641 24.847C22.1641 25.3235 21.7406 25.694 21.3171 25.694H2.68288C2.20643 25.694 1.83586 25.3235 1.83586 24.847V22.6765C1.83586 19.6591 4.21808 17.2239 7.23556 17.2239C8.29433 17.2239 9.30015 18.0709 12 18.0709C14.6469 18.0709 15.7057 17.2239 16.7115 17.2239C19.729 17.2239 22.1641 19.6591 22.1641 22.6765V24.847ZM12 13.8359C15.7057 13.8359 18.7761 10.8184 18.7761 7.05977C18.7761 3.3541 15.7057 0.283684 12 0.283684C8.24139 0.283684 5.22391 3.3541 5.22391 7.05977C5.22391 10.8184 8.24139 13.8359 12 13.8359ZM12 1.97771C14.7528 1.97771 17.0821 4.30699 17.0821 7.05977C17.0821 9.8655 14.7528 12.1418 12 12.1418C9.19427 12.1418 6.91793 9.8655 6.91793 7.05977C6.91793 4.30699 9.19427 1.97771 12 1.97771Z" fill="#3D5567"/>
</svg>
